<?xml version="1.0" encoding="UTF-8"?>
<svg width="219px" height="30px" viewBox="0 0 219 30" version="1.1" xmlns="http://www.w3.org/2000/svg" xmlns:xlink="http://www.w3.org/1999/xlink">
    <!-- Generator: Sketch 47.1 (45422) - http://www.bohemiancoding.com/sketch -->
    <title>logo</title>
    <desc>Created with Sketch.</desc>
    <defs></defs>
    <g id="Page-1" stroke="none" stroke-width="1" fill="none" fill-rule="evenodd">
        <g id="logo" fill-rule="nonzero" fill="#3E424D">
            <g id="Group">
                <rect id="Rectangle-path" x="0.0262741698" y="11.5152838" width="16.8942912" height="2.20087336"></rect>
                <rect id="Rectangle-path" x="0.0262741698" y="16.139738" width="10.1681037" height="2.20087336"></rect>
                <rect id="Rectangle-path" x="6.7918729" y="6.79912664" width="10.1155554" height="2.20087336"></rect>
                <rect id="Rectangle-path" x="12.5984644" y="16.139738" width="4.33523802" height="2.20087336"></rect>
                <rect id="Rectangle-path" x="0.0131370849" y="6.79912664" width="4.54543138" height="2.20087336"></rect>
                <rect id="Rectangle-path" x="0.0131370849" y="20.7510917" width="16.8942912" height="2.20087336"></rect>
                <g transform="translate(34.550533, 0.000000)" id="Shape">
                    <polygon points="22.5169635 6.60262009 24.592623 6.60262009 17.5774196 22.9388646 15.7907761 22.9388646 12.2963115 14.5938865 8.80184689 22.9388646 7.01520334 22.9388646 0 6.60262009 2.04938525 6.60262009 8.02675888 20.7510917 11.140248 13.2838428 8.34204892 6.62882096 10.1681037 6.62882096 12.3094486 11.9606987 14.4113821 6.62882096 16.2374369 6.62882096 13.465512 13.2838428 16.5790012 20.7510917"></polygon>
                    <path d="M26.3267182,14.7248908 C26.3267182,10.139738 29.7817715,6.31441048 34.5373962,6.31441048 C39.3192951,6.31441048 42.6167034,10.2052402 42.6561147,14.6855895 C42.6561147,15 42.6298405,15.4061135 42.5904293,15.5371179 L28.5862968,15.5371179 C28.8359014,19.0480349 31.4764554,21.6157205 34.6293558,21.6157205 C36.7969748,21.6157205 38.9120455,20.4235808 39.6608593,18.6681223 L41.5131883,19.1659389 C40.5016328,21.5502183 37.7034337,23.2401747 34.5636704,23.2401747 C29.7817715,23.2663755 26.3267182,19.3755459 26.3267182,14.7248908 Z M40.6067295,13.9126638 C40.3177136,10.4279476 37.7428449,7.99126638 34.5373962,7.99126638 C31.3319475,7.99126638 28.7439418,10.4672489 28.5337484,13.9126638 L40.6067295,13.9126638 Z"></path>
                    <path d="M47.7795778,19.7816594 L47.7795778,22.9519651 L45.8615634,22.9519651 L45.8615634,0.0524017467 L48.0029083,0.0524017467 L48.0029083,10.0218341 C49.4742618,7.8209607 51.523647,6.31441048 54.2561607,6.31441048 C58.8147291,6.31441048 61.6786137,10.5458515 61.6786137,14.8165939 C61.6786137,19.4017467 58.2761087,23.2532751 53.8751852,23.2532751 C51.3265907,23.2663755 49.0013267,21.8122271 47.7795778,19.7816594 Z M59.4715834,14.8296943 C59.4715834,11.4104803 57.0806339,8.2139738 53.6518548,8.2139738 C51.0769861,8.2139738 49.0276009,10.1004367 47.9897712,12.2882096 L47.9897712,17.371179 C48.3313354,19.6244541 51.2346311,21.3799127 53.3628389,21.3799127 C56.9624002,21.3799127 59.4715834,18.1834061 59.4715834,14.8296943 Z"></path>
                    <path d="M64.1615227,14.8296943 C64.1615227,10.2183406 67.301286,6.32751092 71.6496611,6.32751092 C74.421586,6.32751092 76.6154792,7.99126638 77.8766393,10.0349345 L77.8766393,0.0524017467 L80.0179842,0.0524017467 L80.0179842,20.1877729 C80.0179842,20.7772926 80.2413146,21.0655022 80.766798,21.0655022 L80.766798,22.9519651 C80.4252338,23.0174672 80.1362179,23.0436681 79.9128875,23.0436681 C78.8750578,23.0436681 78.126244,22.349345 78.126244,21.510917 L78.126244,19.7816594 C76.7993984,21.9170306 74.4084489,23.2663755 72.0306366,23.2663755 C67.458931,23.2663755 64.1615227,19.2183406 64.1615227,14.8296943 Z M77.8766393,17.3318777 L77.8766393,12.2882096 C77.0227288,10.0349345 74.4478602,8.2139738 72.2145557,8.2139738 C68.693817,8.2139738 66.368553,11.4759825 66.368553,14.8296943 C66.368553,18.3799127 69.0485183,21.3799127 72.4641604,21.3799127 C74.6317794,21.3799127 77.5350751,19.558952 77.8766393,17.3318777 Z"></path>
                    <path d="M84.8261573,3.18340611 L84.8261573,0.0524017467 L86.9675021,0.0524017467 L86.9675021,3.18340611 L84.8261573,3.18340611 Z M84.8261573,22.9519651 L84.8261573,6.60262009 L86.9675021,6.60262009 L86.9675021,22.9388646 L84.8261573,22.9388646 L84.8261573,22.9519651 Z"></path>
                    <path d="M90.514515,14.8296943 C90.514515,10.2838428 93.6280042,6.32751092 98.1208872,6.32751092 C100.919086,6.32751092 102.968472,7.92576419 104.413551,10.0349345 L104.413551,6.60262009 L106.331565,6.60262009 L106.331565,23.0043668 C106.331565,27.5502183 102.679456,29.9344978 98.2785322,29.9344978 C94.534463,29.9344978 92.3931182,28.4934498 90.9480388,26.2401747 L92.2748844,25.2052402 C93.5623187,27.2751092 95.8613086,28.2445415 98.2785322,28.2445415 C101.483981,28.2445415 104.19022,26.5152838 104.19022,23.0043668 L104.19022,19.7816594 C102.902786,21.8515284 100.538111,23.1746725 98.1865726,23.1746725 C93.6936896,23.1615721 90.514515,19.1266376 90.514515,14.8296943 Z M104.203358,17.3318777 L104.203358,12.2882096 C103.257487,9.930131 100.866538,8.2139738 98.5149997,8.2139738 C94.8628901,8.2139738 92.6952711,11.6331878 92.6952711,14.8689956 C92.6952711,18.3799127 95.3752364,21.3930131 98.7908785,21.3930131 C101.339473,21.3799127 103.822382,19.3362445 104.203358,17.3318777 Z"></path>
                    <path d="M110.929545,3.18340611 L110.929545,0.0524017467 L113.07089,0.0524017467 L113.07089,3.18340611 L110.929545,3.18340611 Z M110.929545,22.9519651 L110.929545,6.60262009 L113.07089,6.60262009 L113.07089,22.9388646 L110.929545,22.9388646 L110.929545,22.9519651 Z"></path>
                    <path d="M125.590532,22.1659389 C125.091323,22.3886463 123.646243,23.1353712 121.885874,23.1353712 C120.033545,23.1353712 118.43082,22.1004367 118.43082,20.0043668 L118.43082,8.30567686 L116.171242,8.30567686 L116.171242,6.60262009 L118.43082,6.60262009 L118.43082,1.08733624 L120.572165,1.08733624 L120.572165,6.60262009 L124.342509,6.60262009 L124.342509,8.29257642 L120.572165,8.29257642 L120.572165,19.4017467 C120.664125,20.5938865 121.518035,21.1572052 122.555865,21.1572052 C123.75134,21.1572052 124.78917,20.5938865 125.038774,20.4366812 L125.590532,22.1659389 Z"></path>
                    <path d="M126.812281,18.2751092 C126.812281,15.2358079 129.636754,13.2576419 133.735524,13.2576419 C135.37766,13.2576419 137.190578,13.5720524 138.543697,14.1091703 L138.543697,12.628821 C138.543697,9.74672489 136.757054,7.92576419 133.945718,7.92576419 C132.211623,7.92576419 130.451253,8.62008734 128.66461,9.86462882 L127.915796,8.44978166 C130.017729,7.0349345 132.001429,6.31441048 134.169048,6.31441048 C138.136448,6.31441048 140.685042,8.76419214 140.685042,12.8122271 L140.685042,20.1877729 C140.685042,20.7772926 140.908373,21.0655022 141.433856,21.0655022 L141.433856,22.9519651 C141.092292,22.9781659 140.803276,23.0174672 140.579946,23.0174672 C139.726035,23.0174672 138.911536,22.5196507 138.84585,21.510917 L138.780165,20.2270742 C137.36136,22.139738 134.786491,23.2663755 132.421816,23.2663755 C129.071859,23.2663755 126.812281,20.9737991 126.812281,18.2751092 Z M138.005077,19.3362445 C138.294093,18.9563319 138.543697,18.4847162 138.543697,18.1179039 L138.543697,15.4454148 C137.124892,14.9082969 135.522168,14.5938865 134.050814,14.5938865 C131.003011,14.5938865 128.88794,15.9170306 128.88794,18.0786026 C128.88794,19.8078603 130.24106,21.628821 132.973573,21.628821 C134.865314,21.628821 136.940973,20.7510917 138.005077,19.3362445 Z"></path>
                    <path d="M145.42753,0.0524017467 L147.568875,0.0524017467 L147.568875,19.2445415 C147.568875,20.4628821 148.291414,21.1834061 149.486889,21.1834061 C149.959824,21.1834061 150.65609,21.0524017 151.181573,20.8427948 L151.562549,22.5720524 C150.774324,22.8864629 149.460615,23.1353712 148.606704,23.1353712 C146.662416,23.1353712 145.42753,21.9432314 145.42753,19.9650655 L145.42753,0.0524017467 Z"></path>
                    <path d="M152.574104,14.7248908 C152.574104,10.139738 156.029157,6.31441048 160.784782,6.31441048 C165.566681,6.31441048 168.864089,10.2052402 168.903501,14.6855895 C168.903501,15 168.877227,15.4061135 168.837815,15.5371179 L154.84682,15.5371179 C155.096424,19.0480349 157.736979,21.6157205 160.889879,21.6157205 C163.057498,21.6157205 165.172569,20.4235808 165.921382,18.6681223 L167.773711,19.1659389 C166.762156,21.5502183 163.963957,23.2401747 160.824193,23.2401747 C156.029157,23.2663755 152.574104,19.3755459 152.574104,14.7248908 Z M166.854115,13.9126638 C166.5651,10.4279476 163.990231,7.99126638 160.784782,7.99126638 C157.579333,7.99126638 154.991328,10.4672489 154.781134,13.9126638 L166.854115,13.9126638 Z"></path>
                    <path d="M170.716418,20.8165939 L171.688563,19.3755459 C173.514617,20.8820961 175.393221,21.628821 177.573977,21.628821 C180.188257,21.628821 181.909215,20.5021834 181.909215,18.5502183 C181.909215,16.7292576 180.267079,16.231441 176.969671,15.4454148 C173.159916,14.5021834 171.465232,13.8471616 171.465232,11.279476 C171.465232,7.99126638 174.237157,6.32751092 177.600251,6.32751092 C180.122571,6.32751092 182.250779,7.23144105 183.511939,8.55458515 L182.474109,9.81222707 C181.25236,8.55458515 179.386894,7.92576419 177.534565,7.92576419 C175.301261,7.92576419 173.514617,8.82969432 173.514617,10.9650655 C173.514617,12.6943231 174.683818,13.0611354 177.600251,13.7554585 C181.817255,14.7641921 183.984874,15.5764192 183.984874,18.3668122 C183.984874,21.3406114 181.462554,23.2532751 177.600251,23.2532751 C175.051656,23.2663755 172.476788,22.4148472 170.716418,20.8165939 Z"></path>
                </g>
            </g>
        </g>
    </g>
</svg>