<svg xmlns="http://www.w3.org/2000/svg" width="36" height="44" viewBox="0 0 36 44">
  <g fill="none" fill-rule="evenodd">
    <circle cx="18.5" cy="27.5" r="16.5" fill="#642891" opacity=".3"/>
    <path fill="#B976FF" d="M33.75,31.5 L36,31.5 L36,33.75 L0,33.75 L0,31.5 L2.25,31.5 L2.25,29.25 L4.5,29.25 L4.5,27 L6.75,27 L6.7725,13.572 L9,13.572 L9,27 L13.5,27 L13.5,13.572 L15.75,13.572 L15.75,27 L20.25,27 L20.25,13.572 L22.5,13.572 L22.5,27 L27.06975,27 L27.06975,13.572 L29.25,13.572 L29.25,27 L31.4955,27 L31.4955,29.25 L33.75,29.25 L33.75,31.5 Z M4.54725,13.5 L4.54725,11.25 L2.25,11.25 L2.25,9 L4.56975,9 L18.06975,0.2115 L31.43025,9 L33.70275,9 L33.70275,11.25 L31.45275,11.25 L31.45275,13.5 L4.54725,13.5 Z"/>
  </g>
</svg>
