<svg xmlns="http://www.w3.org/2000/svg" width="24" height="29" viewBox="0 0 24 29">
  <g fill="#642891" fill-rule="evenodd">
    <circle cx="12" cy="19" r="10" opacity=".3"/>
    <path d="M22.5,21 L24,21 L24,22.5 L0,22.5 L0,21 L1.5,21 L1.5,19.5 L3,19.5 L3,18 L4.5,18 L4.515,9.048 L6,9.048 L6,18 L9,18 L9,9.048 L10.5,9.048 L10.5,18 L13.5,18 L13.5,9.048 L15,9.048 L15,18 L18.0465,18 L18.0465,9.048 L19.5,9.048 L19.5,18 L20.997,18 L20.997,19.5 L22.5,19.5 L22.5,21 Z M3.0315,9 L3.0315,7.5 L1.5,7.5 L1.5,6 L3.0465,6 L12.0465,0.141 L20.9535,6 L22.4685,6 L22.4685,7.5 L20.9685,7.5 L20.9685,9 L3.0315,9 Z"/>
  </g>
</svg>
