<svg xmlns="http://www.w3.org/2000/svg" width="22" height="31" viewBox="0 0 22 31">
  <g fill="#20A971" fill-rule="evenodd">
    <ellipse cx="11" cy="20.31" opacity=".3" rx="11" ry="10.69"/>
    <path d="M11.8966,0 L3.3949,0 C1.5198,0 0,0 0,1.65203762 L0,24.7805643 C0,26.6291944 1.5215,26.3450439 3.3949,26.3450439 L11.8966,26.3450439 C13.7717,26.3450439 15.2949,26.6291944 15.2949,24.7805643 L15.2949,1.65203762 C15.2949,0 13.7717,0 11.8966,0 Z M8.7074,25.0911473 L6.6164,25.0911473 L6.6164,22.8195956 L8.7074,22.8195956 L8.7074,25.0911473 Z M13.6578,21.476489 L1.6949,21.476489 L1.6949,1.65203762 L13.6578,1.65203762 L13.6578,21.476489 Z" transform="translate(3.4)"/>
  </g>
</svg>
