<svg xmlns="http://www.w3.org/2000/svg" xmlns:xlink="http://www.w3.org/1999/xlink" width="14" height="14" viewBox="0 0 14 14">
  <defs>
    <path id="icon-search-a" d="M14.5557622,13.4772032 L11.1058803,10.0018129 C10.9763573,9.87152867 10.963405,9.67076898 11.0635948,9.51686591 C12.4780617,7.34736603 12.1481591,4.36377989 10.0613157,2.5817043 C8.05332899,0.867437495 4.99696823,0.926103514 3.05145728,2.71198858 C0.818329173,4.76187073 0.761948593,8.25097511 2.88307744,10.3736184 C4.69182739,12.1838841 7.49142794,12.4036912 9.54741436,11.0437062 C9.70169906,10.9416121 9.90398343,10.9549453 10.0342683,11.0859915 L13.4765313,14.5541437 C13.6254827,14.7038563 13.8670049,14.7042373 14.0163372,14.5549056 L14.5550003,14.0158639 C14.7035708,13.8672941 14.7039517,13.6265349 14.5557622,13.4772032 L14.5557622,13.4772032 Z M3.96040365,9.29515407 C2.48841338,7.82202746 2.48841338,5.42510151 3.96040365,3.9519749 C5.43239393,2.47884829 7.82742572,2.47846735 9.299416,3.9519749 C10.7714063,5.42510151 10.7714063,7.82202746 9.299416,9.29515407 C7.82742572,10.7682807 5.43239393,10.7682807 3.96040365,9.29515407 L3.96040365,9.29515407 Z"/>
  </defs>
  <use fill="#141C26" fill-rule="evenodd" transform="translate(-1 -1)" xlink:href="#icon-search-a"/>
</svg>
