<svg xmlns="http://www.w3.org/2000/svg" width="24" height="29" viewBox="0 0 24 29">
  <g fill="#CA1A2A" fill-rule="evenodd">
    <circle cx="12" cy="19" r="10" opacity=".3"/>
    <path d="M15.7538595,20.1081081 L15.7538595,21.7131243 L17.3837838,21.7131243 L17.3837838,23.2216216 L6.48648649,23.2216216 L6.48648649,21.7131243 L8.06815135,21.7131243 L8.06815135,20.1081081 L15.7538595,20.1081081 Z M10.9222054,4.67027027 L3.84363243,4.67027027 L10.9222054,2.85353514 L10.9222054,0.0249081081 L12.4057946,0.0249081081 L12.4057946,2.85353514 L19.4594595,4.67027027 L12.4057946,4.67027027 L12.4057946,18.6079135 L10.9222054,18.6079135 L10.9222054,4.67027027 Z M3.87943784,7.75109189 L0.934054054,13.9516541 L0.0186810811,13.6994595 L3.35636757,6.52436757 C3.41863784,6.36869189 3.59143784,6.25971892 3.7907027,6.25193514 C4.01020541,6.23948108 4.17210811,6.336 4.25461622,6.48856216 L7.7184,13.6636541 L6.83727568,13.9859027 L3.87943784,7.75109189 Z M18.9644108,6.53059459 C19.0282378,6.37803243 19.1994811,6.26594595 19.4018595,6.26127568 C19.6182486,6.24882162 19.7848216,6.34534054 19.8673297,6.49634595 L23.3513514,13.6870054 L22.464,14.0108108 L19.4874811,7.76198919 L16.5265297,13.9734486 L15.6049297,13.7212541 L18.9644108,6.53059459 Z M23.3264432,15.615827 C23.3264432,17.2675459 21.5953297,18.6079135 19.4594595,18.6079135 C17.3235892,18.6079135 15.5924757,17.2675459 15.5924757,15.615827 L23.3264432,15.615827 Z M7.75887568,15.615827 C7.75887568,17.2675459 6.02776216,18.6079135 3.89189189,18.6079135 C1.75602162,18.6079135 0.0249081081,17.2675459 0.0249081081,15.615827 L7.75887568,15.615827 Z"/>
  </g>
</svg>
