<svg xmlns="http://www.w3.org/2000/svg" width="34" height="44" viewBox="0 0 34 44">
  <g fill="none" fill-rule="evenodd">
    <circle cx="17.319" cy="28.553" r="15.447" fill="#CA1A2A" opacity=".3"/>
    <path fill="#FC6A77" d="M22.7369532,29.0212766 L22.7369532,31.3377362 L25.0893617,31.3377362 L25.0893617,33.5148936 L9.36170213,33.5148936 L9.36170213,31.3377362 L11.6444596,31.3377362 L11.6444596,29.0212766 L22.7369532,29.0212766 Z M15.7636085,6.74042553 L5.54737021,6.74042553 L15.7636085,4.1184 L15.7636085,0.0359489362 L17.904817,0.0359489362 L17.904817,4.1184 L28.0851064,6.74042553 L17.904817,6.74042553 L17.904817,26.8561021 L15.7636085,26.8561021 L15.7636085,6.74042553 Z M5.59904681,11.1868596 L1.34808511,20.1358979 L0.0269617021,19.7719149 L4.84411915,9.41637447 C4.93399149,9.19169362 5.18338723,9.03441702 5.47097872,9.02318298 C5.78777872,9.00520851 6.02144681,9.14451064 6.14052766,9.36469787 L11.1396766,19.7202383 L9.86798298,20.1853277 L5.59904681,11.1868596 Z M27.3706213,9.4253617 C27.4627404,9.20517447 27.7098894,9.04340426 28.0019745,9.03666383 C28.3142809,9.01868936 28.5546894,9.15799149 28.6737702,9.37593191 L33.7021277,19.7539404 L32.4214468,20.2212766 L28.1255489,11.2025872 L23.8521191,20.1673532 L22.5220085,19.8033702 L27.3706213,9.4253617 Z M33.6661787,22.5377362 C33.6661787,24.9216 31.1677277,26.8561021 28.0851064,26.8561021 C25.0024851,26.8561021 22.504034,24.9216 22.504034,22.5377362 L33.6661787,22.5377362 Z M11.1980936,22.5377362 C11.1980936,24.9216 8.69964255,26.8561021 5.61702128,26.8561021 C2.5344,26.8561021 0.0359489362,24.9216 0.0359489362,22.5377362 L11.1980936,22.5377362 Z"/>
  </g>
</svg>
