<svg xmlns="http://www.w3.org/2000/svg" width="162" height="39" viewBox="0 0 162 39">
  <g fill="none" fill-rule="evenodd">
    <path fill="#141C26" d="M7.81658112,13.2408464 C8.41266695,13.2408464 9.02404893,13.2385288 9.65142232,13.2336618 C10.2781004,13.2287948 10.8922635,13.2241597 11.4936798,13.2190609 C12.0948644,13.2144258 12.6731047,13.2095588 13.2281691,13.2049236 C13.7830017,13.2000567 14.2866155,13.1928721 14.7390103,13.1831382 L10.406727,4.00638283 L6.15138798,13.2408464 L7.81658112,13.2408464 Z M17.8070446,21.3190609 L17.8070446,21.2613528 C17.8274395,21.2131468 17.8429674,21.1410695 17.8531648,21.0446575 C17.8633622,20.9484773 17.8686927,20.8617991 17.8686927,20.7846232 C17.8686927,20.4861167 17.8248901,20.1558592 17.7377485,19.7945459 C17.6501433,19.4332326 17.4832764,18.9829236 17.2366841,18.4433871 L15.3710189,14.5125116 C14.7953279,14.4932755 14.0298258,14.4835416 13.0740489,14.4835416 L9.9749588,14.4835416 L7.62375708,14.4835416 C6.86845236,14.4835416 6.18754249,14.4932755 5.58102747,14.5125116 L3.80806609,18.3277391 C3.65394592,18.6841854 3.48939657,19.0744687 3.31488155,19.4983571 C3.139903,19.9222455 3.05252961,20.3510009 3.05252961,20.7846232 C3.05252961,20.9097734 3.06272704,21.01337 3.08358541,21.0951811 C3.10398026,21.1769923 3.12437511,21.2323828 3.14523348,21.2613528 L3.14523348,21.3190609 L2.31759652e-05,21.3190609 L2.31759652e-05,21.2613528 C0.184967382,21.0782627 0.416263519,20.7533356 0.693911588,20.2858764 C0.971327897,19.8186489 1.27423777,19.2334558 1.60333648,18.5300652 L10.4375511,0.162417167 L11.670976,0.162417167 L20.0423665,17.8220395 C20.2377399,18.2364258 20.4407614,18.6385288 20.6514309,19.028812 C20.8621004,19.4188635 21.0600232,19.7681253 21.2449674,20.0763657 C21.4301433,20.3848378 21.5944609,20.6448721 21.7383837,20.8567004 C21.8820747,21.0687605 21.9798773,21.2034129 22.0313279,21.2613528 L22.0313279,21.3190609 L17.8070446,21.3190609 Z M45.3616455,9.51820687 L45.1319717,9.51820687 C45.0763494,9.36849013 44.9875854,9.19884206 44.8656798,9.00949442 C44.744006,8.82037854 44.5840918,8.64261888 44.3857056,8.47621545 C44.1873193,8.30981202 43.9472163,8.17121974 43.6653966,8.06020687 C43.3833451,7.94942575 43.0510017,7.89403519 42.6683665,7.89403519 C42.3272163,7.89403519 42.0245382,7.94293648 41.7601004,8.04073906 C41.4956627,8.13854163 41.2747957,8.27574335 41.0972678,8.45164893 C40.9197399,8.62778627 40.7857828,8.83683348 40.6953966,9.07809528 C40.6047785,9.31958884 40.5595854,9.58680773 40.5595854,9.88021545 C40.5595854,10.3499923 40.7004953,10.7984472 40.982315,11.225812 C41.2643665,11.6531768 41.6173365,12.0754429 42.0419202,12.4930738 C42.4665039,12.910473 42.9258515,13.3278721 43.4199631,13.745503 C43.9140747,14.1629021 44.3734223,14.5967562 44.798006,15.0468335 C45.2223579,15.4969107 45.5755597,15.9683099 45.8576112,16.4607991 C46.1394309,16.9535202 46.2803408,17.4833227 46.2803408,18.0509021 C46.2803408,18.4750223 46.202006,18.900533 46.0455682,19.3278979 C45.8888987,19.7552627 45.6469416,20.1385931 45.3199288,20.4776575 C44.9926841,20.8169536 44.5718086,21.0925159 44.0568386,21.3043442 C43.5416369,21.5164043 42.9293279,21.6225502 42.2194481,21.6225502 C41.8226755,21.6225502 41.4451391,21.5882498 41.0868386,21.5196489 C40.7283064,21.4512798 40.3978172,21.3664558 40.0951391,21.2654086 C39.7924609,21.1643614 39.5208386,21.0549708 39.2807356,20.9374687 C39.0408644,20.8201983 38.8438687,20.71243 38.6909073,20.6146275 L38.9310103,18.4520781 L39.1919717,18.4520781 C39.2684524,18.7589279 39.3938343,19.0507133 39.5678858,19.3278979 C39.7417056,19.6050824 39.9558515,19.8498206 40.2098601,20.0616489 C40.4638687,20.273709 40.7544953,20.4435888 41.0815082,20.5705931 C41.408521,20.6978292 41.7670532,20.7615631 42.156873,20.7615631 C42.511697,20.7615631 42.8301348,20.7110395 43.1119545,20.6097605 C43.3937742,20.5087133 43.6357313,20.3684987 43.837594,20.188885 C44.0392249,20.0097348 44.1940403,19.7960524 44.3020403,19.5480695 C44.4100403,19.3003185 44.4638086,19.0293914 44.4638086,18.7357519 C44.4638086,18.3248421 44.3838515,17.944988 44.2237056,17.5959579 C44.0635597,17.2471597 43.8531219,16.9159751 43.5921605,16.6026361 C43.3311991,16.2897605 43.0352421,15.9861554 42.7049845,15.6927476 C42.3742635,15.3991082 42.0349674,15.1040781 41.6870961,14.8069622 C41.3389931,14.5103099 40.999697,14.2055459 40.6692077,13.8922069 C40.3387185,13.5790996 40.0429931,13.2449021 39.7818,12.8893828 C39.5208386,12.5338635 39.3104009,12.1521554 39.1502549,11.7442584 C38.990109,11.3368249 38.9103837,10.8881382 38.9103837,10.3988936 C38.9103837,9.88369185 39.0162979,9.41878197 39.2285897,9.00462747 C39.4408815,8.59047296 39.7227013,8.23657597 40.0742807,7.94293648 C40.4256283,7.64952876 40.8240232,7.42425837 41.2694652,7.2678206 C41.7149073,7.11115107 42.1742549,7.03281631 42.6475082,7.03281631 C42.9953794,7.03281631 43.3156712,7.05900515 43.6079202,7.11115107 C43.9001691,7.16352876 44.1627528,7.22517682 44.395903,7.29702232 C44.6290532,7.36909957 44.83277,7.4407133 45.0068215,7.51232704 C45.1806412,7.58417253 45.3234052,7.64280773 45.4346498,7.68846438 L45.3616455,9.51820687 Z M52.7839571,8.14848412 C51.9628326,8.14848412 51.2214335,8.18255279 50.5604549,8.25115365 C49.8992446,8.31952275 49.3286524,8.39299056 48.8484464,8.47132532 C48.2915279,8.5691279 47.7939399,8.67666438 47.3556824,8.79416652 L47.6583605,7.20893047 C47.741794,7.2156515 47.867176,7.22214077 48.0340429,7.22863004 C48.2011416,7.23535107 48.3872446,7.24184034 48.5925837,7.24809785 C48.7979227,7.25481888 49.013691,7.25968584 49.2398884,7.26293047 C49.4660858,7.26617511 49.68,7.26941974 49.8818627,7.27266438 C50.0837253,7.27590901 50.2628755,7.27915365 50.4195451,7.28239828 C50.5762146,7.28564292 50.6890815,7.28726524 50.7588412,7.28726524 L56.7194678,7.28726524 C56.7889957,7.28726524 56.9023262,7.28564292 57.0587639,7.28239828 C57.2154335,7.27915365 57.3945837,7.27590901 57.5964464,7.27266438 C57.798309,7.26941974 58.0122232,7.26617511 58.2384206,7.26293047 C58.464618,7.25968584 58.6803863,7.25481888 58.8857253,7.24809785 C59.0908326,7.24184034 59.2771674,7.23535107 59.4442661,7.22863004 C59.611133,7.22214077 59.736515,7.2156515 59.8199485,7.20893047 L60.1228584,8.79416652 C59.6774163,8.67666438 59.1763519,8.5691279 58.6194335,8.47132532 C58.1392275,8.39299056 57.5686352,8.31952275 56.9074249,8.25115365 C56.2462146,8.18255279 55.5050472,8.14848412 54.6839227,8.14848412 L54.6839227,17.4930335 C54.6839227,18.0478661 54.6924979,18.5322438 54.7101116,18.9463983 C54.7272618,19.3605528 54.7481202,19.7176944 54.7726867,20.0178232 C54.7970215,20.3179519 54.828309,20.5691794 54.8665494,20.7712738 C54.9047897,20.9736 54.9448841,21.1430163 54.9866009,21.2799863 L54.9866009,21.3191536 L52.4917082,21.3191536 L52.4917082,21.2799863 C52.5334249,21.1430163 52.5716652,20.9736 52.6064292,20.7712738 C52.6411931,20.5691794 52.6727124,20.3179519 52.7005236,20.0178232 C52.728103,19.7176944 52.7491931,19.3605528 52.7630987,18.9463983 C52.7770043,18.5322438 52.7839571,18.0478661 52.7839571,17.4930335 L52.7839571,8.14848412 Z M61.7095313,21.2800094 C61.7512481,21.1430395 61.7894884,20.9736232 61.8244841,20.771297 C61.8592481,20.5692026 61.8903039,20.3179751 61.9183468,20.0178464 C61.9461579,19.7177176 61.9667845,19.360576 61.9809219,18.9464215 C61.9948275,18.532267 62.0017803,18.0478893 62.0017803,17.4930567 L62.0017803,11.1231425 C62.0017803,10.5685416 61.9948275,10.0841639 61.9809219,9.67000944 C61.9667845,9.25562318 61.9461579,8.89685923 61.9183468,8.5937176 C61.8903039,8.29034421 61.8592481,8.03749442 61.8244841,7.83516824 C61.7894884,7.63307382 61.7512481,7.46342575 61.7095313,7.32645579 L61.7095313,7.28728841 L64.204424,7.28728841 L64.204424,7.32645579 C64.1627073,7.46342575 64.1226129,7.63307382 64.0843725,7.83516824 C64.0461322,8.03749442 64.0148446,8.29034421 63.9905099,8.5937176 C63.9659433,8.89685923 63.945085,9.25562318 63.9279348,9.67000944 C63.910321,10.0841639 63.9017459,10.5685416 63.9017459,11.1231425 L63.9017459,17.4930567 C63.9017459,18.0478893 63.910321,18.532267 63.9279348,18.9464215 C63.945085,19.360576 63.9659433,19.7177176 63.9905099,20.0178464 C64.0148446,20.3179751 64.0461322,20.5692026 64.0843725,20.771297 C64.1226129,20.9736232 64.1627073,21.1430395 64.204424,21.2800094 L64.204424,21.3191768 L61.7095313,21.3191768 L61.7095313,21.2800094 Z M67.8685906,7.28731159 L78.6210798,18.0117579 L78.6210798,11.1231657 C78.6210798,10.5685648 78.614127,10.0841871 78.6002215,9.67003262 C78.5860841,9.25564635 78.5652258,8.8968824 78.5376464,8.59374077 C78.5096034,8.29036738 78.4764618,8.0375176 78.4382215,7.83519142 C78.3999811,7.633097 78.3601185,7.46344893 78.31817,7.32647897 L78.31817,7.28731159 L80.1764189,7.28731159 L80.1764189,7.32647897 C80.1347021,7.46344893 80.0964618,7.633097 80.0616979,7.83519142 C80.0267021,8.0375176 79.9954146,8.29036738 79.9678352,8.59374077 C79.9397923,8.8968824 79.9189339,9.25564635 79.9050283,9.67003262 C79.8911227,10.0841871 79.88417,10.5685648 79.88417,11.1231657 L79.88417,21.5150369 L79.5189167,21.5150369 L68.7664275,10.8000927 L68.7664275,17.4930798 C68.7664275,18.0479124 68.7731485,18.5322901 68.7872858,18.9464446 C68.8011914,19.3605991 68.8220498,19.7177408 68.8498609,20.0178695 C68.8776721,20.3179983 68.9089597,20.5692258 68.9439554,20.7713202 C68.9787193,20.9736464 69.0169597,21.1430627 69.0586764,21.2800326 L69.0586764,21.3192 L67.2006592,21.3192 L67.2006592,21.2800326 C67.242376,21.1430627 67.2822386,20.9736464 67.320479,20.7713202 C67.3587193,20.5692258 67.3918609,20.3179983 67.4196721,20.0178695 C67.4474833,19.7177408 67.4683416,19.3605991 67.4822472,18.9464446 C67.4963845,18.5322901 67.5033373,18.0479124 67.5033373,17.4930798 L67.5033373,11.1231657 C67.5033373,10.5685648 67.4963845,10.0841871 67.4822472,9.67003262 C67.4683416,9.25564635 67.4474833,8.8968824 67.4196721,8.59374077 C67.3918609,8.29036738 67.3587193,8.0375176 67.320479,7.83519142 C67.2822386,7.633097 67.242376,7.46344893 67.2006592,7.32647897 L67.2006592,7.28731159 L67.8685906,7.28731159 Z M34.213079,7.22890815 C35.0842635,7.39739742 35.8780403,7.55059056 36.8708987,7.74225579 C35.6085039,13.6500412 31.9624609,17.7480155 27.5701519,21.4735519 C23.2165468,17.7480155 19.5997056,13.6922215 18.3016197,7.84469356 C19.1982979,7.62753476 19.9774738,7.4388824 20.9154052,7.21175794 C21.4813622,12.4720069 23.9384781,16.6900326 27.5680661,20.4948309 C31.1920918,16.7338352 33.667285,12.5382901 34.213079,7.22890815 Z" transform="translate(0 .07)"/>
    <path fill="#642891" d="M89.8957004,11.1426103 C89.1967133,11.1426103 88.6105931,11.1667133 88.1380352,11.2149193 C87.6650137,11.2631253 87.300224,11.3113313 87.0434343,11.3593056 L87.0434343,15.7379408 C87.0434343,16.8652197 87.0638292,17.7950395 87.1050824,18.5271682 C87.1463356,19.259297 87.202885,19.8567734 87.2747305,20.3191339 C87.6650137,20.3675717 88.0557605,20.410679 88.4462755,20.4491511 C88.8370223,20.4876232 89.1501296,20.5068592 89.386988,20.5068592 C91.3089708,20.5068592 92.7143614,20.1047562 93.6033914,19.3003185 C94.4924215,18.4961124 94.9369365,17.26037 94.9369365,15.5935545 C94.9369365,14.93837 94.8314858,14.3388077 94.6210481,13.7941725 C94.4103785,13.2502326 94.0968077,12.7804558 93.6807991,12.3853056 C93.264327,11.9903871 92.7400867,11.6844644 92.1078464,11.4675373 C91.4758378,11.2508421 90.7381468,11.1426103 89.8957004,11.1426103 Z M87.0434343,10.0586704 C87.3310481,10.0874086 87.5880695,10.1045588 87.8144987,10.109194 C88.0402326,10.1142927 88.2819579,10.1163785 88.5389794,10.1163785 C89.2379665,10.1163785 89.8748421,10.0225159 90.4507648,9.8345588 C91.0259923,9.64683348 91.5166275,9.36501373 91.9231339,8.98933133 C92.3287133,8.61364893 92.6450652,8.1438721 92.8710309,7.58023262 C93.0972283,7.01659313 93.2105588,6.35909099 93.2105588,5.60772618 C93.2105588,4.98151159 93.1280524,4.41323691 92.9637348,3.90243863 C92.7989536,3.39210386 92.5551425,2.95593219 92.2313742,2.59461888 C91.9078378,2.23330558 91.5089794,1.95635279 91.0364215,1.76352876 C90.5638635,1.57093648 90.024327,1.47452446 89.4175803,1.47452446 C89.0270652,1.47452446 88.6852197,1.48912532 88.3925073,1.51809528 C88.0995631,1.54706524 87.8501897,1.58067039 87.6446189,1.61914249 C87.4084558,1.65761459 87.2077519,1.7058206 87.0434343,1.76352876 L87.0434343,10.0586704 Z M84.2375202,6.33012103 C84.2375202,5.51154592 84.227091,4.79610386 84.2066961,4.18425837 C84.1858378,3.57264464 84.1550137,3.0426103 84.1144558,2.59461888 C84.0732026,2.14662747 84.0238378,1.77326266 83.9677519,1.47452446 C83.9112026,1.17601803 83.8523356,0.925485837 83.790224,0.723159657 L83.790224,0.665451502 C83.9957948,0.675185408 84.2117948,0.679588841 84.4379923,0.679588841 C84.6331339,0.689322747 84.8516833,0.6941897 85.0929451,0.6941897 L85.8408335,0.6941897 C86.2111854,0.6941897 86.7122498,0.660584549 87.3440266,0.59291073 C87.9760352,0.525700429 88.7906704,0.491863519 89.7874687,0.491863519 C90.7126532,0.491863519 91.5659923,0.605193991 92.3467906,0.831623176 C93.1280524,1.05805236 93.8038635,1.38321116 94.374224,1.80709957 C94.9445845,2.23098798 95.3918807,2.75360601 95.7154172,3.37495365 C96.0396489,3.99630129 96.2011854,4.7022412 96.2011854,5.49207811 C96.2011854,6.15676481 96.1033828,6.75192361 95.9082412,7.27662747 C95.7133313,7.80202661 95.4380009,8.25952017 95.0836403,8.64957167 C94.7290481,9.03985494 94.3023785,9.36756309 93.8038635,9.63223262 C93.3051167,9.89736567 92.7579322,10.1068764 92.1620781,10.2609966 C93.0353485,10.3861468 93.8319064,10.5958893 94.5517519,10.8895288 C95.2709021,11.1836318 95.8901639,11.5521296 96.4093056,11.9952541 C96.9282155,12.4383785 97.3291597,12.9561296 97.6121382,13.5487391 C97.8946532,14.1411167 98.0357948,14.7986189 98.0357948,15.5212455 C98.0357948,17.5542412 97.3215116,19.0787562 95.8929451,20.0950223 C94.4643785,21.1117519 92.3263957,21.6197691 89.4792283,21.6197691 C89.170988,21.6197691 88.8110652,21.6074858 88.4001554,21.5836146 C87.9890137,21.5592798 87.5699923,21.533091 87.1435545,21.504121 C86.7171167,21.4751511 86.2980953,21.4484987 85.8869536,21.4246275 C85.4760438,21.4005245 85.116121,21.388473 84.8078807,21.388473 L83.790224,21.388473 L83.790224,21.3307648 C83.8523356,21.1284386 83.9112026,20.8779064 83.9677519,20.5791682 C84.0238378,20.2806618 84.0732026,19.9096146 84.1144558,19.4664901 C84.1550137,19.0233657 84.1858378,18.4961124 84.2066961,17.8840352 C84.227091,17.2721897 84.2375202,16.5569794 84.2375202,15.7379408 L84.2375202,6.33012103 Z M102.995567,14.5981931 C103.183524,14.6373605 103.374726,14.6651717 103.569636,14.6811631 C103.764314,14.6978498 103.952271,14.7057296 104.133276,14.7057296 C104.655198,14.7057296 105.131696,14.6322618 105.563233,14.4857897 C105.994537,14.3388541 106.361645,14.1154378 106.664555,13.815309 C106.967233,13.515412 107.202005,13.1420472 107.369104,12.6949828 C107.536203,12.248382 107.619636,11.7250687 107.619636,11.1248112 C107.619636,10.6353348 107.560306,10.1919785 107.44234,9.79404721 C107.323911,9.39634764 107.148237,9.05890558 106.915087,8.78125751 C106.681705,8.50430472 106.388065,8.289 106.033009,8.13557511 C105.678185,7.98238197 105.264031,7.90566953 104.790778,7.90566953 C104.310803,7.90566953 103.927705,7.92861373 103.64264,7.97427039 C103.357344,8.01992704 103.141576,8.06882833 102.995567,8.12097425 L102.995567,14.5981931 Z M102.995567,17.5628627 C102.995567,18.1174635 103.004142,18.6016094 103.021524,19.0159957 C103.038906,19.4301502 103.059765,19.7872918 103.084331,20.0871888 C103.108434,20.3873176 103.139722,20.6383133 103.178194,20.8406395 C103.216203,21.0429657 103.256529,21.212382 103.298245,21.3493519 L103.298245,21.3885193 L100.792924,21.3885193 L100.792924,21.3493519 C100.834872,21.212382 100.874735,21.0429657 100.913207,20.8406395 C100.951215,20.6383133 100.982503,20.3873176 101.00707,20.0871888 C101.031173,19.7872918 101.052031,19.4315408 101.069413,19.0206309 C101.087027,18.6099528 101.095833,18.1239528 101.095833,17.5628627 L101.095833,11.193412 C101.095833,10.6388112 101.087027,10.1544335 101.069413,9.74027897 C101.052031,9.32612446 101.031173,8.96898283 101.00707,8.66885408 C100.982503,8.36895708 100.951215,8.1161073 100.913207,7.91076824 C100.874735,7.70519742 100.834872,7.53392704 100.792924,7.39695708 L100.792924,7.3577897 L101.231413,7.39695708 C101.363516,7.40993562 101.51161,7.41827897 101.675001,7.42129185 C101.838391,7.42476824 102.007112,7.42639056 102.181164,7.42639056 C102.452555,7.42639056 102.819662,7.39533476 103.282486,7.33322318 C103.745078,7.27157511 104.334906,7.24028755 105.051739,7.24028755 C105.719902,7.24028755 106.33731,7.32511159 106.904658,7.49475966 C107.471542,7.66440773 107.964031,7.9121588 108.381662,8.23847639 C108.799293,8.56456223 109.124452,8.96388412 109.357602,9.43690558 C109.590752,9.90992704 109.707327,10.4464506 109.707327,11.0464764 C109.707327,11.5160215 109.642898,11.9514979 109.514271,12.3526738 C109.385413,12.7538498 109.204409,13.1174807 108.97149,13.4437983 C108.738108,13.7698841 108.458142,14.0584249 108.13113,14.3096524 C107.803885,14.5606481 107.438632,14.7710858 107.035138,14.9407339 L110.699027,19.7643476 C110.880031,20.0056094 111.048752,20.2141931 111.20519,20.3903305 C111.361859,20.5666996 111.511344,20.7182704 111.654108,20.8455064 C111.79664,20.9727425 111.934074,21.0770343 112.066409,21.1586137 C112.198512,21.2401931 112.334323,21.303927 112.47361,21.3493519 L112.47361,21.3885193 L109.456795,21.3885193 C109.435936,21.2647597 109.368031,21.0999785 109.25331,20.8944077 C109.138357,20.6888369 109.0044,20.4851202 108.851439,20.282794 L105.156263,15.4005451 C104.996117,15.4137554 104.835971,15.4248798 104.676057,15.4346137 C104.515911,15.4443476 104.352288,15.4494464 104.185421,15.4494464 C103.990512,15.4494464 103.793979,15.4429571 103.595825,15.4297468 C103.397207,15.4167682 103.197198,15.3940558 102.995567,15.3613777 L102.995567,17.5628627 Z M113.517085,21.3493056 C113.559033,21.2123356 113.597042,21.0429193 113.632038,20.8405931 C113.666802,20.6384987 113.697858,20.3872712 113.7259,20.0871425 C113.753712,19.7872455 113.774338,19.4301039 113.788476,19.0159494 C113.802381,18.6017948 113.809566,18.1174172 113.809566,17.5628163 L113.809566,11.1933657 C113.809566,10.6387648 113.802381,10.1543871 113.788476,9.74023262 C113.774338,9.32607811 113.753712,8.96731416 113.7259,8.66417253 C113.697858,8.36056738 113.666802,8.10794936 113.632038,7.90562318 C113.597042,7.70352876 113.559033,7.53388069 113.517085,7.39691073 L113.517085,7.35774335 L116.011978,7.35774335 L116.011978,7.39691073 C115.970261,7.53388069 115.929935,7.70352876 115.891926,7.90562318 C115.853454,8.10794936 115.822167,8.36056738 115.798064,8.66417253 C115.773497,8.96731416 115.752639,9.32607811 115.735257,9.74023262 C115.717875,10.1543871 115.7093,10.6387648 115.7093,11.1933657 L115.7093,17.5628163 C115.7093,18.1174172 115.717875,18.6017948 115.735257,19.0159494 C115.752639,19.4301039 115.773497,19.7872455 115.798064,20.0871425 C115.822167,20.3872712 115.853454,20.6384987 115.891926,20.8405931 C115.929935,21.0429193 115.970261,21.2123356 116.011978,21.3493056 L116.011978,21.388473 L113.517085,21.388473 L113.517085,21.3493056 Z M132.264494,19.7446481 C132.264494,19.8167253 132.255688,19.8915837 132.238537,19.9699185 C132.221155,20.0480215 132.181061,20.1133777 132.118486,20.1652918 C131.805379,20.3870858 131.466082,20.5910343 131.100829,20.7769056 C130.735344,20.9627768 130.340194,21.1243133 129.915842,21.2612833 C129.491258,21.3982532 129.033997,21.5041674 128.54313,21.5792575 C128.052726,21.6541159 127.525705,21.6916609 126.961833,21.6916609 C125.695267,21.6916609 124.540177,21.5171459 123.496331,21.1683476 C122.452486,20.8195494 121.556503,20.3254378 120.808383,19.6860129 C120.060263,19.0468197 119.481095,18.2787682 119.070417,17.3818584 C118.659739,16.4851803 118.454632,15.4886137 118.454632,14.3926223 C118.454632,13.772897 118.539688,13.1633691 118.710494,12.5631116 C118.880838,11.9630858 119.129516,11.3922618 119.456529,10.8508712 C119.783542,10.3094807 120.187499,9.81212446 120.667473,9.35880258 C121.147679,8.90524893 121.695559,8.51218455 122.311576,8.1798412 C122.927361,7.84703433 123.605954,7.58769528 124.347121,7.40182403 C125.088057,7.21572103 125.890177,7.12301717 126.75325,7.12301717 C127.086984,7.12301717 127.428134,7.13784979 127.776005,7.16681974 C128.124108,7.19625322 128.468271,7.238897 128.809421,7.29405579 C129.150108,7.34967811 129.478975,7.41665665 129.796022,7.49475966 C130.112374,7.57286266 130.41343,7.66093133 130.698726,7.75896567 L131.408606,9.56900858 L131.324941,9.60817597 C131.05355,9.3798927 130.740675,9.16783262 130.385851,8.97222747 C130.030563,8.77662232 129.651404,8.60697425 129.247679,8.46328326 C128.844185,8.32005579 128.421456,8.20765236 127.979722,8.1258412 C127.537524,8.04449356 127.090692,8.0034721 126.638297,8.0034721 C125.761318,8.0034721 124.957808,8.13256223 124.226838,8.39004721 C123.496331,8.64776395 122.868263,9.020897 122.342864,9.51037339 C121.817464,9.99938627 121.40864,10.5996438 121.116391,11.3104506 C120.824142,12.021721 120.678134,12.8305622 120.678134,13.737206 C120.678134,14.7351631 120.816958,15.6615064 121.095533,16.5157725 C121.373876,17.3705021 121.787799,18.1107425 122.337765,18.7369571 C122.887267,19.3631717 123.574666,19.8540386 124.399035,20.2095579 C125.223868,20.5650773 126.18567,20.7428369 127.285602,20.7428369 C127.772529,20.7428369 128.20731,20.7069142 128.590177,20.6350687 C128.972812,20.5632232 129.296348,20.4737639 129.561018,20.3659957 C129.825456,20.2584592 130.025464,20.1409571 130.161276,20.013721 C130.296855,19.886485 130.364761,19.7708369 130.364761,19.6663133 L130.364761,19.2848369 C130.364761,18.8282704 130.357576,18.4335837 130.343902,18.1010086 C130.329765,17.7684335 130.308906,17.4796609 130.281095,17.2351545 C130.253284,16.9904163 130.221997,16.7799785 130.187233,16.6038412 C130.152469,16.4277039 130.110752,16.2647768 130.062082,16.1148283 L130.062082,16.0756609 L132.567404,16.0756609 L132.567404,16.1148283 C132.525456,16.2517983 132.485361,16.4133348 132.447121,16.599206 C132.408881,16.7848455 132.375739,17.0052489 132.347928,17.2594893 C132.320117,17.5139614 132.299258,17.8122361 132.285353,18.1547768 C132.271215,18.4970858 132.264494,18.8933948 132.264494,19.3437039 L132.264494,19.7446481 Z M145.312517,14.6764815 C145.034173,14.6699923 144.68607,14.6651253 144.268671,14.6618807 C143.85104,14.6586361 143.397023,14.6535373 142.906388,14.6470481 C142.415753,14.6407906 141.904259,14.6356918 141.371907,14.6324472 C140.839555,14.6292026 140.319255,14.6259579 139.81147,14.6227133 C139.303221,14.6194687 138.81977,14.621091 138.360422,14.6273485 C137.901075,14.6340695 137.501058,14.6438034 137.160139,14.656782 L137.160139,17.5628163 C137.160139,18.1174172 137.168714,18.6017948 137.186328,19.0159494 C137.203478,19.4301039 137.224568,19.7872455 137.248903,20.0871425 C137.273238,20.3872712 137.304294,20.6384987 137.342766,20.8405931 C137.380774,21.0429193 137.4211,21.2123356 137.462817,21.3493056 L137.462817,21.388473 L134.957495,21.388473 L134.957495,21.3493056 C134.999444,21.2123356 135.039306,21.0429193 135.077779,20.8405931 C135.115787,20.6384987 135.148929,20.3872712 135.176972,20.0871425 C135.204551,19.7872455 135.225409,19.4301039 135.239315,19.0159494 C135.253452,18.6017948 135.260405,18.1174172 135.260405,17.5628163 L135.260405,11.1933657 C135.260405,10.6387648 135.253452,10.1543871 135.239315,9.74023262 C135.225409,9.32607811 135.204551,8.96731416 135.176972,8.66417253 C135.148929,8.36056738 135.115787,8.10794936 135.077779,7.90562318 C135.039306,7.70352876 134.999444,7.53388069 134.957495,7.39691073 L134.957495,7.35774335 L137.462817,7.35774335 L137.462817,7.39691073 C137.4211,7.53388069 137.380774,7.70352876 137.342766,7.90562318 C137.304294,8.10794936 137.273238,8.36056738 137.248903,8.66417253 C137.224568,8.96731416 137.203478,9.32607811 137.186328,9.74023262 C137.168714,10.1543871 137.160139,10.6387648 137.160139,11.1933657 L137.160139,13.6979923 C137.521916,13.7112026 137.932594,13.7190824 138.391942,13.7225588 C138.851058,13.7258034 139.331264,13.7258034 139.832328,13.7225588 C140.333392,13.7190824 140.843032,13.7144472 141.361478,13.7077262 C141.879693,13.7012369 142.380989,13.6931253 142.864439,13.6833914 C143.348122,13.6736575 143.800517,13.6623013 144.221624,13.6488592 C144.6425,13.6361124 145.00613,13.6231339 145.312517,13.6099236 L145.312517,11.1933657 C145.312517,10.6387648 145.30371,10.1543871 145.286328,9.74023262 C145.268946,9.32607811 145.248088,8.96731416 145.223753,8.66417253 C145.199418,8.36056738 145.167899,8.10794936 145.12989,7.90562318 C145.091418,7.70352876 145.051555,7.53388069 145.009607,7.39691073 L145.009607,7.35774335 L147.514929,7.35774335 L147.514929,7.39691073 C147.473212,7.53388069 147.432886,7.70352876 147.394877,7.90562318 C147.356405,8.10794936 147.323495,8.36056738 147.295916,8.66417253 C147.267873,8.96731416 147.247015,9.32607811 147.233109,9.74023262 C147.219203,10.1543871 147.212251,10.6387648 147.212251,11.1933657 L147.212251,17.5628163 C147.212251,18.1174172 147.219203,18.6017948 147.233109,19.0159494 C147.247015,19.4301039 147.267873,19.7872455 147.295916,20.0871425 C147.323495,20.3872712 147.356405,20.6384987 147.394877,20.8405931 C147.432886,21.0429193 147.473212,21.2123356 147.514929,21.3493056 L147.514929,21.388473 L145.009607,21.388473 L145.009607,21.3493056 C145.051555,21.2123356 145.091418,21.0429193 145.12989,20.8405931 C145.167899,20.6384987 145.199418,20.3872712 145.223753,20.0871425 C145.248088,19.7872455 145.268946,19.4301039 145.286328,19.0159494 C145.30371,18.6017948 145.312517,18.1174172 145.312517,17.5628163 L145.312517,14.6764815 Z M154.435573,8.21891588 C153.614217,8.21891588 152.873282,8.25298455 152.212071,8.32135365 C151.551093,8.38995451 150.9805,8.46342232 150.500294,8.54175708 C149.943376,8.6393279 149.44602,8.74709614 149.00753,8.86459828 L149.310209,7.27936223 C149.393642,7.28608326 149.519024,7.29280429 149.686123,7.2990618 C149.853221,7.30578283 150.039093,7.3122721 150.244432,7.31852961 C150.449771,7.32525064 150.665307,7.3301176 150.891736,7.33336223 C151.117934,7.33660687 151.331616,7.3398515 151.533711,7.34309614 C151.735573,7.34634077 151.914724,7.34958541 152.071161,7.3530618 C152.227831,7.35630644 152.34093,7.357697 152.410458,7.357697 L158.370621,7.357697 C158.440148,7.357697 158.553479,7.35630644 158.709917,7.3530618 C158.866586,7.34958541 159.045736,7.34634077 159.247599,7.34309614 C159.449462,7.3398515 159.663376,7.33660687 159.889573,7.33336223 C160.115539,7.3301176 160.331307,7.32525064 160.536646,7.31852961 C160.741985,7.3122721 160.92832,7.30578283 161.094955,7.2990618 C161.262054,7.29280429 161.387436,7.28608326 161.47087,7.27936223 L161.773548,8.86459828 C161.328106,8.74709614 160.827041,8.6393279 160.270586,8.54175708 C159.790148,8.46342232 159.219788,8.38995451 158.558578,8.32135365 C157.897599,8.25298455 157.1562,8.21891588 156.335307,8.21891588 L156.335307,17.56277 C156.335307,18.1173708 156.343882,18.6017485 156.361496,19.015903 C156.378646,19.4300575 156.399505,19.7871991 156.424071,20.0870961 C156.448406,20.3872249 156.479462,20.6384524 156.517934,20.8405468 C156.555942,21.042873 156.596269,21.2122893 156.637985,21.3492592 L156.637985,21.3884266 L154.143093,21.3884266 L154.143093,21.3492592 C154.185041,21.2122893 154.22305,21.042873 154.258045,20.8405468 C154.292809,20.6384524 154.324097,20.3872249 154.35214,20.0870961 C154.379719,19.7871991 154.400578,19.4300575 154.414483,19.015903 C154.428621,18.6017485 154.435573,18.1173708 154.435573,17.56277 L154.435573,8.21891588 Z M53.3948155,32 L53.3948155,32.7159056 L50.8802232,32.7159056 L50.8802232,34.9222575 L53.3948155,34.9222575 L53.3948155,35.6379313 L50.8802232,35.6379313 L50.8802232,38.5604206 L50,38.5604206 L50,32 L53.3948155,32 Z M59,38.5604206 L59,32 L59.8804549,32 L59.8804549,38.5604206 L59,38.5604206 Z M65.8704893,32 L69.8586094,37.242867 L69.8586094,32 L70.7390644,32 L70.7390644,38.5604206 L69.7663691,38.5604206 L65.8802232,33.4498884 L65.8802232,38.5604206 L65,38.5604206 L65,32 L65.8704893,32 Z M78.6184635,35.1229614 L77.9472876,33.3815193 L77.2712446,35.1229614 L78.6184635,35.1229614 Z M78.3315451,32 L80.8656052,38.5604206 L79.9510815,38.5604206 L78.8956481,35.8342318 L76.9940601,35.8342318 L75.9191588,38.5604206 L75,38.5604206 L77.567897,32 L78.3315451,32 Z M86.870721,32 L90.8588412,37.242867 L90.8588412,32 L91.7392961,32 L91.7392961,38.5604206 L90.7666009,38.5604206 L86.8804549,33.4498884 L86.8804549,38.5604206 L86,38.5604206 L86,32 L86.870721,32 Z M101.622489,37.1925751 L102.235494,37.7031416 C101.447279,38.3750129 100.580034,38.7106009 99.6332961,38.7106009 C98.6149442,38.7106009 97.7551159,38.3817339 97.0531159,37.7235365 C96.3511159,37.0655708 96,36.2761974 96,35.3551845 C96,34.4436738 96.3511159,33.6563863 97.0531159,32.9937854 C97.7551159,32.3311845 98.6149442,32 99.6332961,32 C100.580034,32 101.447279,32.3372103 102.235494,33.0120944 L101.622489,33.5226609 C100.980283,32.9907725 100.317451,32.7249442 99.6332961,32.7249442 C98.8874936,32.7249442 98.24297,32.9791845 97.6999571,33.4885923 C97.1567124,33.9975365 96.8853219,34.6195794 96.8853219,35.3551845 C96.8853219,36.0968155 97.1567124,36.7214077 97.6999571,37.2289614 C98.24297,37.7367468 98.8874936,37.9902918 99.6332961,37.9902918 C100.317451,37.9902918 100.980283,37.7244635 101.622489,37.1925751 Z M111.808275,32 L111.808275,32.7159056 L108.880223,32.7159056 L108.880223,34.9222575 L111.808275,34.9222575 L111.808275,35.6379313 L108.880223,35.6379313 L108.880223,37.8447468 L111.808275,37.8447468 L111.808275,38.5604206 L108,38.5604206 L108,32 L111.808275,32 Z M26.6172953,8.34202661 C27.0191665,8.7666103 27.5746944,9.48622403 27.5746944,9.48622403 C28.3522481,8.77935708 28.5344112,8.34202661 28.5344112,8.34202661 C28.8289777,10.4440867 29.5483597,13.8634687 29.7047974,15.9333142 C29.8542824,17.9079064 27.5967116,20.0521468 27.5320506,19.9819236 C26.280085,18.6198721 25.3583768,17.3370824 25.6181794,15.2959751 C25.8965227,13.1107133 26.3452094,10.2850996 26.6172953,8.34202661 Z M27.5625502,8.59777339 C26.8563785,7.99496652 26.3286618,7.54465751 25.6150738,6.93559313 L29.5345931,6.93559313 C28.788327,7.56458884 28.1894601,8.06936137 27.5625502,8.59777339 Z"/>
  </g>
</svg>
