<svg xmlns="http://www.w3.org/2000/svg" width="162" height="39" viewBox="0 0 162 39">
  <g fill="none" fill-rule="evenodd">
    <path fill="#141C26" d="M7.81658112,13.2408464 C8.41266695,13.2408464 9.02404893,13.2385288 9.65142232,13.2336618 C10.2781004,13.2287948 10.8922635,13.2241597 11.4936798,13.2190609 C12.0948644,13.2144258 12.6731047,13.2095588 13.2281691,13.2046918 C13.7830017,13.1998249 14.2866155,13.1926403 14.7390103,13.1829064 L10.406727,4.00638283 L6.15138798,13.2408464 L7.81658112,13.2408464 Z M17.8070446,21.3188292 L17.8070446,21.261121 C17.8274395,21.212915 17.8429674,21.1408378 17.8531648,21.0444258 C17.8633622,20.9482455 17.8686927,20.8615674 17.8686927,20.7843914 C17.8686927,20.485885 17.8248901,20.1556275 17.7377485,19.7943142 C17.6501433,19.4330009 17.4832764,18.9826918 17.2366841,18.4431554 L15.3710189,14.5125116 C14.7953279,14.4932755 14.0298258,14.4835416 13.0740489,14.4835416 L9.9749588,14.4835416 L7.62375708,14.4835416 C6.86845236,14.4835416 6.18754249,14.4932755 5.58102747,14.5125116 L3.80806609,18.3275073 C3.65394592,18.6839536 3.48939657,19.0742369 3.31488155,19.4981253 C3.139903,19.9220137 3.05252961,20.3507691 3.05252961,20.7843914 C3.05252961,20.9095416 3.06272704,21.0131382 3.08358541,21.0949494 C3.10398026,21.1767605 3.12437511,21.2321511 3.14523348,21.261121 L3.14523348,21.3188292 L2.31759653e-05,21.3188292 L2.31759653e-05,21.261121 C0.184967382,21.0780309 0.416263519,20.7531039 0.693911588,20.2856446 C0.971327897,19.8184172 1.27423777,19.233224 1.60333648,18.5298335 L10.4375511,0.162417167 L11.670976,0.162417167 L20.0423665,17.8218077 C20.2377399,18.236194 20.4407614,18.638297 20.6514309,19.0285803 C20.8621004,19.4186318 21.0600232,19.7678936 21.2449674,20.0761339 C21.4301433,20.384606 21.5944609,20.6446403 21.7383837,20.8564687 C21.8820747,21.0685288 21.9798773,21.2031811 22.0313279,21.261121 L22.0313279,21.3188292 L17.8070446,21.3188292 Z M45.3616455,9.51820687 L45.1319717,9.51820687 C45.0763494,9.36825837 44.9875854,9.1986103 44.8656798,9.00949442 C44.744006,8.82014678 44.5840918,8.64238712 44.3857056,8.47598369 C44.1873193,8.30958026 43.9472163,8.17121974 43.6653966,8.06020687 C43.3833451,7.94919399 43.0510017,7.89380343 42.6683665,7.89380343 C42.3272163,7.89380343 42.0245382,7.94270472 41.7601004,8.04073906 C41.4956627,8.13854163 41.2747957,8.27551159 41.0972678,8.45141717 C40.9197399,8.62778627 40.7857828,8.83660172 40.6953966,9.07786352 C40.6047785,9.31935708 40.5595854,9.58680773 40.5595854,9.88021545 C40.5595854,10.3499923 40.7004953,10.7984472 40.982315,11.2255803 C41.2643665,11.6529451 41.6173365,12.0754429 42.0419202,12.4928421 C42.4665039,12.910473 42.9258515,13.3278721 43.4199631,13.7452712 C43.9140747,14.1629021 44.3734223,14.5965245 44.798006,15.0466017 C45.2223579,15.4969107 45.5755597,15.9683099 45.8576112,16.4605674 C46.1394309,16.9532884 46.2803408,17.483091 46.2803408,18.0506704 C46.2803408,18.4747906 46.202006,18.9003013 46.0455682,19.3276661 C45.8888987,19.7550309 45.6469416,20.1383614 45.3199288,20.4774258 C44.9926841,20.8167219 44.5718086,21.0922841 44.0568386,21.3041124 C43.5416369,21.5161725 42.9293279,21.6223185 42.2194481,21.6223185 C41.8226755,21.6223185 41.4451391,21.588018 41.0868386,21.5194172 C40.7283064,21.4510481 40.3978172,21.366224 40.0951391,21.2651768 C39.7924609,21.1641296 39.5208386,21.0547391 39.2807356,20.9372369 C39.0408644,20.8199665 38.8438687,20.7121983 38.6909073,20.6143957 L38.9310103,18.4518464 L39.1919717,18.4518464 C39.2684524,18.7586961 39.3938343,19.0504815 39.5678858,19.3276661 C39.7417056,19.6048506 39.9558515,19.8495888 40.2098601,20.0614172 C40.4638687,20.2734773 40.7544953,20.4433571 41.0815082,20.5703614 C41.408521,20.6975974 41.7670532,20.7613313 42.156873,20.7613313 C42.511697,20.7613313 42.8301348,20.7108077 43.1119545,20.6095288 C43.3937742,20.5084815 43.6357313,20.368267 43.837594,20.1886532 C44.0392249,20.009503 44.1940403,19.7958206 44.3020403,19.5478378 C44.4100403,19.3000867 44.4638086,19.0291597 44.4638086,18.7355202 C44.4638086,18.3246103 44.3838515,17.9447562 44.2237056,17.5957262 C44.0635597,17.2469279 43.8531219,16.9157433 43.5921605,16.6024043 C43.3311991,16.2895288 43.0352421,15.9861554 42.7049845,15.6927476 C42.3742635,15.3991082 42.0349674,15.1040781 41.6870961,14.8069622 C41.3389931,14.5103099 40.999697,14.2053142 40.6692077,13.8922069 C40.3387185,13.5788678 40.0429931,13.2446704 39.7818,12.8891511 C39.5208386,12.5336318 39.3104009,12.1519236 39.1502549,11.7442584 C38.990109,11.3368249 38.9103837,10.8881382 38.9103837,10.3988936 C38.9103837,9.88346009 39.0162979,9.41878197 39.2285897,9.00439571 C39.4408815,8.5902412 39.7227013,8.23634421 40.0742807,7.94270472 C40.4256283,7.649297 40.8240232,7.42425837 41.2694652,7.26758884 C41.7149073,7.11091931 42.1742549,7.03258455 42.6475082,7.03258455 C42.9953794,7.03258455 43.3156712,7.05900515 43.6079202,7.11091931 C43.9001691,7.163297 44.1627528,7.22517682 44.395903,7.29702232 C44.6290532,7.36886781 44.83277,7.44048155 45.0068215,7.51232704 C45.1806412,7.58394077 45.3234052,7.64280773 45.4346498,7.68823262 L45.3616455,9.51820687 Z M52.7839571,8.14825236 C51.9628326,8.14825236 51.2214335,8.18232103 50.5604549,8.25092189 C49.8992446,8.31952275 49.3286524,8.39299056 48.8484464,8.47132532 C48.2915279,8.56889614 47.7939399,8.67666438 47.3556824,8.79416652 L47.6583605,7.20893047 C47.741794,7.2156515 47.867176,7.22214077 48.0340429,7.22839828 C48.2011416,7.23511931 48.3872446,7.24160858 48.5925837,7.24809785 C48.7979227,7.25481888 49.013691,7.25945408 49.2398884,7.26269871 C49.4660858,7.26594335 49.68,7.26918798 49.8818627,7.27266438 C50.0837253,7.27590901 50.2628755,7.27915365 50.4195451,7.28239828 C50.5762146,7.28564292 50.6890815,7.28703348 50.7588412,7.28703348 L56.7194678,7.28703348 C56.7889957,7.28703348 56.9023262,7.28564292 57.0587639,7.28239828 C57.2154335,7.27915365 57.3945837,7.27590901 57.5964464,7.27266438 C57.798309,7.26918798 58.0122232,7.26594335 58.2384206,7.26269871 C58.464618,7.25945408 58.6803863,7.25481888 58.8857253,7.24809785 C59.0908326,7.24160858 59.2771674,7.23511931 59.4442661,7.22839828 C59.611133,7.22214077 59.736515,7.2156515 59.8199485,7.20893047 L60.1228584,8.79416652 C59.6774163,8.67666438 59.1763519,8.56889614 58.6194335,8.47132532 C58.1392275,8.39299056 57.5686352,8.31952275 56.9074249,8.25092189 C56.2462146,8.18232103 55.5050472,8.14825236 54.6839227,8.14825236 L54.6839227,17.4928017 C54.6839227,18.0476343 54.6924979,18.532012 54.7101116,18.9461665 C54.7272618,19.360321 54.7481202,19.7174627 54.7726867,20.0175914 C54.7970215,20.3177202 54.828309,20.5689476 54.8665494,20.7710421 C54.9047897,20.9733682 54.9448841,21.1427845 54.9866009,21.2797545 L54.9866009,21.3189219 L52.4917082,21.3189219 L52.4917082,21.2797545 C52.5334249,21.1427845 52.5716652,20.9733682 52.6064292,20.7710421 C52.6411931,20.5689476 52.6727124,20.3177202 52.7005236,20.0175914 C52.728103,19.7174627 52.7491931,19.360321 52.7630987,18.9461665 C52.7770043,18.532012 52.7839571,18.0476343 52.7839571,17.4928017 L52.7839571,8.14825236 Z M61.7095313,21.2797777 C61.7512481,21.1428077 61.7894884,20.9733914 61.8244841,20.7710652 C61.8592481,20.5689708 61.8903039,20.3177433 61.9183468,20.0176146 C61.9461579,19.7174858 61.9667845,19.3603442 61.9809219,18.9461897 C61.9948275,18.5320352 62.0017803,18.0476575 62.0017803,17.4928249 L62.0017803,11.1229107 C62.0017803,10.5685416 61.9948275,10.0841639 61.9809219,9.66977768 C61.9667845,9.25562318 61.9461579,8.89685923 61.9183468,8.59348584 C61.8903039,8.29011245 61.8592481,8.03726266 61.8244841,7.83516824 C61.7894884,7.63307382 61.7512481,7.46342575 61.7095313,7.32622403 L61.7095313,7.28705665 L64.204424,7.28705665 L64.204424,7.32622403 C64.1627073,7.46342575 64.1226129,7.63307382 64.0843725,7.83516824 C64.0461322,8.03726266 64.0148446,8.29011245 63.9905099,8.59348584 C63.9659433,8.89685923 63.945085,9.25562318 63.9279348,9.66977768 C63.910321,10.0841639 63.9017459,10.5685416 63.9017459,11.1229107 L63.9017459,17.4928249 C63.9017459,18.0476575 63.910321,18.5320352 63.9279348,18.9461897 C63.945085,19.3603442 63.9659433,19.7174858 63.9905099,20.0176146 C64.0148446,20.3177433 64.0461322,20.5689708 64.0843725,20.7710652 C64.1226129,20.9733914 64.1627073,21.1428077 64.204424,21.2797777 L64.204424,21.3189451 L61.7095313,21.3189451 L61.7095313,21.2797777 Z M67.8685906,7.28707983 L78.6210798,18.0115262 L78.6210798,11.1229339 C78.6210798,10.5685648 78.614127,10.0841871 78.6002215,9.66980086 C78.5860841,9.25564635 78.5652258,8.8968824 78.5376464,8.59350901 C78.5096034,8.29013562 78.4764618,8.03728584 78.4382215,7.83519142 C78.3999811,7.633097 78.3601185,7.46344893 78.31817,7.32624721 L78.31817,7.28707983 L80.1764189,7.28707983 L80.1764189,7.32624721 C80.1347021,7.46344893 80.0964618,7.633097 80.0616979,7.83519142 C80.0267021,8.03728584 79.9954146,8.29013562 79.9678352,8.59350901 C79.9397923,8.8968824 79.9189339,9.25564635 79.9050283,9.66980086 C79.8911227,10.0841871 79.88417,10.5685648 79.88417,11.1229339 L79.88417,21.5148052 L79.5189167,21.5148052 L68.7664275,10.8000927 L68.7664275,17.4928481 C68.7664275,18.0476807 68.7731485,18.5320584 68.7872858,18.9462129 C68.8011914,19.3603674 68.8220498,19.717509 68.8498609,20.0176378 C68.8776721,20.3177665 68.9089597,20.568994 68.9439554,20.7710884 C68.9787193,20.9734146 69.0169597,21.1428309 69.0586764,21.2798009 L69.0586764,21.3189682 L67.2006592,21.3189682 L67.2006592,21.2798009 C67.242376,21.1428309 67.2822386,20.9734146 67.320479,20.7710884 C67.3587193,20.568994 67.3918609,20.3177665 67.4196721,20.0176378 C67.4474833,19.717509 67.4683416,19.3603674 67.4822472,18.9462129 C67.4963845,18.5320584 67.5033373,18.0476807 67.5033373,17.4928481 L67.5033373,11.1229339 C67.5033373,10.5685648 67.4963845,10.0841871 67.4822472,9.66980086 C67.4683416,9.25564635 67.4474833,8.8968824 67.4196721,8.59350901 C67.3918609,8.29013562 67.3587193,8.03728584 67.320479,7.83519142 C67.2822386,7.633097 67.242376,7.46344893 67.2006592,7.32624721 L67.2006592,7.28707983 L67.8685906,7.28707983 Z M34.213079,7.22913991 C35.0842635,7.39739742 35.8780403,7.55059056 36.8708987,7.74225579 C35.6085039,13.6500412 31.9624609,17.7480155 27.5701519,21.4735519 C23.2165468,17.7480155 19.5997056,13.6924532 18.3016197,7.84469356 C19.1982979,7.62776652 19.9774738,7.4388824 20.9154052,7.21175794 C21.4813622,12.4722386 23.9384781,16.6900326 27.5680661,20.4948309 C31.1920918,16.7338352 33.667285,12.5382901 34.213079,7.22913991 Z" transform="translate(0 .07)"/>
    <path fill="#CA1A2A" d="M89.8954918,11.1423785 C89.1965047,11.1423785 88.6108481,11.1664815 88.1382901,11.2146876 C87.6652687,11.2631253 87.300479,11.3110996 87.0432258,11.3593056 L87.0432258,15.7379408 C87.0432258,16.864988 87.0640841,17.7948077 87.1053373,18.5269365 C87.146127,19.2590652 87.2026764,19.8565416 87.2745219,20.3189021 C87.6652687,20.3673399 88.0560155,20.4104472 88.4465305,20.4489193 C88.8368137,20.4873914 89.1503845,20.5066275 89.3867794,20.5066275 C91.3087622,20.5066275 92.7141528,20.1045245 93.6036464,19.3000867 C94.4922129,18.4958807 94.9371914,17.2601382 94.9371914,15.5933227 C94.9371914,14.93837 94.8317408,14.338576 94.621303,13.7941725 C94.41017,13.2500009 94.0970627,12.780224 93.6805906,12.3850738 C93.2641185,11.9901554 92.7398781,11.6842326 92.1081013,11.4675373 C91.4760927,11.2508421 90.7384017,11.1423785 89.8954918,11.1423785 Z M87.0432258,10.0584386 C87.331303,10.0874086 87.5883245,10.104327 87.8142901,10.109194 C88.0404876,10.1140609 88.2817494,10.1163785 88.5387708,10.1163785 C89.2377579,10.1163785 89.875097,10.0225159 90.450788,9.83432704 C91.0262472,9.64660172 91.5168824,9.36478197 91.9229253,8.98909957 C92.3289682,8.61341717 92.6448567,8.1438721 92.8712858,7.58023262 C93.0970197,7.01659313 93.2103502,6.35885923 93.2103502,5.60749442 C93.2103502,4.98151159 93.1278438,4.41300515 92.9635262,3.90243863 C92.7992086,3.3918721 92.5553974,2.95570043 92.2311657,2.59438712 C91.9076292,2.23330558 91.5092343,1.95635279 91.0366764,1.76352876 C90.5636549,1.57093648 90.0241185,1.47452446 89.4178352,1.47452446 C89.0268567,1.47452446 88.6854747,1.48912532 88.3927622,1.51786352 C88.0993545,1.54683348 87.8504446,1.58067039 87.6448738,1.61891073 C87.4082472,1.65761459 87.2075433,1.70558884 87.0432258,1.76352876 L87.0432258,10.0584386 Z M84.2377751,6.33012103 C84.2377751,5.51131416 84.2273459,4.7958721 84.2064876,4.18425837 C84.1860927,3.57241288 84.1552687,3.0426103 84.1142472,2.59438712 C84.072994,2.14662747 84.0240927,1.77326266 83.9675433,1.47452446 C83.910994,1.17601803 83.852127,0.925254077 83.790479,0.723159657 L83.790479,0.665219742 C83.9960498,0.674953648 84.2120498,0.679588841 84.4377837,0.679588841 C84.6329253,0.689322747 84.8514747,0.6941897 85.0932,0.6941897 L85.8410884,0.6941897 C86.2109768,0.6941897 86.7120412,0.66035279 87.3442815,0.59291073 C87.9762901,0.525700429 88.7904618,0.491863519 89.7877236,0.491863519 C90.7129082,0.491863519 91.5657837,0.605193991 92.3470455,0.831391416 C93.1278438,1.0578206 93.8041185,1.38321116 94.374479,1.80686781 C94.9448395,2.23098798 95.3921356,2.75360601 95.7156721,3.37472189 C96.0394403,3.99630129 96.2014403,4.70200944 96.2014403,5.49184635 C96.2014403,6.15653305 96.1036378,6.75169185 95.9084961,7.27662747 C95.7131227,7.80179485 95.4382558,8.25952017 95.0834318,8.64957167 C94.7288395,9.03985494 94.3026335,9.36733133 93.8041185,9.63223262 C93.3053717,9.89736567 92.7581871,10.1068764 92.1618695,10.2607648 C93.0356034,10.3861468 93.8321614,10.5958893 94.5515433,10.8895288 C95.2706936,11.1836318 95.8904189,11.5521296 96.4095605,11.9950223 C96.9284704,12.4383785 97.3289511,12.9558979 97.6119296,13.5485073 C97.8944446,14.140885 98.0360498,14.7983871 98.0360498,15.5212455 C98.0360498,17.5540094 97.321303,19.0785245 95.8932,20.0947906 C94.46417,21.1115202 92.3261871,21.6195373 89.4794833,21.6195373 C89.1712429,21.6195373 88.8113202,21.6072541 88.4004103,21.5833828 C87.9888052,21.5590481 87.5702472,21.5328592 87.1438094,21.5038893 C86.7169082,21.4749193 86.2983502,21.448267 85.8872086,21.4243957 C85.4758352,21.4002927 85.116376,21.3882412 84.8081356,21.3882412 L83.790479,21.3882412 L83.790479,21.330533 C83.852127,21.1282069 83.910994,20.8776747 83.9675433,20.5789365 C84.0240927,20.28043 84.072994,19.9093828 84.1142472,19.4662584 C84.1552687,19.0231339 84.1860927,18.4958807 84.2064876,17.8838034 C84.2273459,17.2719579 84.2377751,16.5567476 84.2377751,15.7379408 L84.2377751,6.33012103 Z M102.995567,14.5979382 C103.183524,14.6371056 103.374726,14.6649167 103.569636,14.6811399 C103.764314,14.6975948 103.952271,14.7057064 104.133276,14.7057064 C104.655198,14.7057064 105.131696,14.6322386 105.563233,14.4855348 C105.994537,14.3388309 106.361645,14.1154146 106.664555,13.8152858 C106.967233,13.5153888 107.202005,13.1417923 107.369104,12.6949597 C107.536203,12.248127 107.619636,11.7248137 107.619636,11.1245562 C107.619636,10.6353116 107.560306,10.1917236 107.44234,9.79379227 C107.323911,9.39632446 107.148237,9.05865064 106.915087,8.78123433 C106.681705,8.50404979 106.388065,8.28874506 106.033009,8.13555193 C105.678185,7.9823588 105.264031,7.90564635 104.790778,7.90564635 C104.310803,7.90564635 103.927705,7.92859056 103.64264,7.97401545 C103.357344,8.0196721 103.141576,8.06857339 102.995567,8.12095107 L102.995567,14.5979382 Z M102.995567,17.5626077 C102.995567,18.1172086 103.004142,18.6013545 103.021524,19.0157408 C103.038906,19.4298953 103.059765,19.7870369 103.084331,20.0869339 C103.108434,20.3870627 103.139722,20.6380584 103.178194,20.8403845 C103.216203,21.0427107 103.256529,21.212127 103.298245,21.349097 L103.298245,21.3882644 L100.792924,21.3882644 L100.792924,21.349097 C100.834872,21.212127 100.874735,21.0427107 100.913207,20.8403845 C100.951215,20.6380584 100.982503,20.3870627 101.00707,20.0869339 C101.031173,19.7870369 101.052031,19.4312858 101.069413,19.020376 C101.087027,18.6096979 101.095833,18.1236979 101.095833,17.5626077 L101.095833,11.1931571 C101.095833,10.638788 101.087027,10.1544103 101.069413,9.74002403 C101.052031,9.32610129 101.031173,8.96895966 101.00707,8.6688309 C100.982503,8.36870215 100.951215,8.11585236 100.913207,7.9105133 C100.874735,7.70494249 100.834872,7.53390386 100.792924,7.39693391 L100.792924,7.35776652 L101.231413,7.39693391 C101.363516,7.40991245 101.51161,7.41825579 101.675001,7.42126867 C101.838391,7.42474506 102.007112,7.42613562 102.181164,7.42613562 C102.452555,7.42613562 102.819662,7.39531159 103.282486,7.3332 C103.745078,7.27132017 104.334906,7.24026438 105.051739,7.24026438 C105.719902,7.24026438 106.33731,7.32508841 106.904658,7.49473648 C107.471542,7.66438455 107.964031,7.91213562 108.381662,8.23822146 C108.799293,8.56453906 109.124452,8.96386094 109.357602,9.43665064 C109.590752,9.9096721 109.707327,10.4461957 109.707327,11.0464532 C109.707327,11.5159983 109.642898,11.9512429 109.514271,12.3526506 C109.385413,12.7535948 109.204409,13.1172258 108.97149,13.4435433 C108.738108,13.7698609 108.458142,14.0584017 108.13113,14.3093974 C107.803885,14.5606249 107.438632,14.7708309 107.035138,14.940479 L110.699027,19.7640927 C110.880031,20.0053545 111.048752,20.2139382 111.20519,20.3900755 C111.361859,20.5664446 111.511344,20.7180155 111.654108,20.8452515 C111.79664,20.9724876 111.934074,21.0767794 112.066409,21.1583588 C112.198512,21.2399382 112.334323,21.3036721 112.47361,21.349097 L112.47361,21.3882644 L109.456795,21.3882644 C109.435936,21.2645047 109.368031,21.0997236 109.25331,20.8941528 C109.138357,20.688582 109.0044,20.4848652 108.851439,20.2825391 L105.156263,15.4002901 C104.996117,15.4135004 104.835971,15.4246249 104.676057,15.4345906 C104.515911,15.4443245 104.352288,15.4491914 104.185421,15.4491914 C103.990512,15.4491914 103.793979,15.4429339 103.595825,15.4297236 C103.397207,15.4165133 103.197198,15.3940326 102.995567,15.3611227 L102.995567,17.5626077 Z M113.517085,21.3490738 C113.559033,21.2121039 113.597042,21.0426876 113.632038,20.8403614 C113.666802,20.638267 113.697858,20.3870395 113.7259,20.0869107 C113.753712,19.7870137 113.774338,19.4298721 113.788476,19.0157176 C113.802381,18.6015631 113.809566,18.1171854 113.809566,17.5625845 L113.809566,11.1931339 C113.809566,10.6387648 113.802381,10.1543871 113.788476,9.74000086 C113.774338,9.32607811 113.753712,8.9670824 113.7259,8.66394077 C113.697858,8.36056738 113.666802,8.1077176 113.632038,7.90562318 C113.597042,7.70352876 113.559033,7.53388069 113.517085,7.39691073 L113.517085,7.35774335 L116.011978,7.35774335 L116.011978,7.39691073 C115.970261,7.53388069 115.929935,7.70352876 115.891926,7.90562318 C115.853454,8.1077176 115.822167,8.36056738 115.798064,8.66394077 C115.773497,8.9670824 115.752639,9.32607811 115.735257,9.74000086 C115.717875,10.1543871 115.7093,10.6387648 115.7093,11.1931339 L115.7093,17.5625845 C115.7093,18.1171854 115.717875,18.6015631 115.735257,19.0157176 C115.752639,19.4298721 115.773497,19.7870137 115.798064,20.0869107 C115.822167,20.3870395 115.853454,20.638267 115.891926,20.8403614 C115.929935,21.0426876 115.970261,21.2121039 116.011978,21.3490738 L116.011978,21.3882412 L113.517085,21.3882412 L113.517085,21.3490738 Z M132.264494,19.7444163 C132.264494,19.8164936 132.255688,19.8913519 132.238537,19.9696867 C132.221155,20.0477897 132.181061,20.1131459 132.118486,20.1650601 C131.805379,20.3868541 131.466082,20.5908026 131.100829,20.7766738 C130.735344,20.9625451 130.340194,21.1240815 129.915842,21.2610515 C129.491258,21.3980215 129.033997,21.5039356 128.54313,21.5790258 C128.052726,21.6538841 127.525705,21.6914292 126.961833,21.6914292 C125.695267,21.6914292 124.540177,21.5169142 123.496331,21.1681159 C122.452486,20.8193176 121.556503,20.325206 120.808383,19.6857811 C120.060263,19.046588 119.481095,18.2785365 119.070417,17.3816266 C118.659739,16.4849485 118.454632,15.488382 118.454632,14.3923906 C118.454632,13.772897 118.539688,13.1631373 118.710494,12.5628798 C118.880838,11.9628541 119.129516,11.3922618 119.456529,10.8506395 C119.783542,10.3092489 120.187499,9.81212446 120.667473,9.35857082 C121.147679,8.90524893 121.695559,8.51218455 122.311576,8.17960944 C122.927361,7.84680258 123.605954,7.58769528 124.347121,7.40159227 C125.088057,7.21572103 125.890177,7.12278541 126.75325,7.12278541 C127.086984,7.12278541 127.428134,7.13761803 127.776005,7.16681974 C128.124108,7.19602146 128.468271,7.23866524 128.809421,7.29405579 C129.150108,7.34967811 129.478975,7.41642489 129.796022,7.49475966 C130.112374,7.57286266 130.41343,7.66093133 130.698726,7.75873391 L131.408606,9.56900858 L131.324941,9.60817597 C131.05355,9.37966094 130.740675,9.16760086 130.385851,8.97222747 C130.030563,8.77639056 129.651404,8.60674249 129.247679,8.46328326 C128.844185,8.31982403 128.421456,8.2074206 127.979722,8.12560944 C127.537524,8.0442618 127.090692,8.0034721 126.638297,8.0034721 C125.761318,8.0034721 124.957808,8.13233047 124.226838,8.39004721 C123.496331,8.64753219 122.868263,9.020897 122.342864,9.51014163 C121.817464,9.99938627 121.40864,10.5996438 121.116391,11.3104506 C120.824142,12.021721 120.678134,12.8303305 120.678134,13.7369742 C120.678134,14.7351631 120.816958,15.6612747 121.095533,16.5155408 C121.373876,17.3702704 121.787799,18.1105107 122.337765,18.7367253 C122.887267,19.3629399 123.574666,19.8538069 124.399035,20.2093262 C125.223868,20.5648455 126.18567,20.7426052 127.285602,20.7426052 C127.772529,20.7426052 128.20731,20.7066824 128.590177,20.6348369 C128.972812,20.5629914 129.296348,20.4735322 129.561018,20.3657639 C129.825456,20.2582275 130.025464,20.1407253 130.161276,20.0134893 C130.296855,19.8862532 130.364761,19.7706052 130.364761,19.6660815 L130.364761,19.2846052 C130.364761,18.8280386 130.357576,18.4333519 130.343902,18.1007768 C130.329765,17.7682017 130.308906,17.4794292 130.281095,17.2349227 C130.253284,16.9901845 130.221997,16.7797468 130.187233,16.6036094 C130.152469,16.4274721 130.110752,16.2645451 130.062082,16.1145966 L130.062082,16.0754292 L132.567404,16.0754292 L132.567404,16.1145966 C132.525456,16.2515665 132.485361,16.4128712 132.447121,16.5989742 C132.408881,16.7846137 132.375739,17.0050172 132.347928,17.2592575 C132.320117,17.5137296 132.299258,17.8120043 132.285353,18.1545451 C132.271215,18.4968541 132.264494,18.8931631 132.264494,19.3434721 L132.264494,19.7444163 Z M145.312517,14.6762498 C145.034173,14.6699923 144.68607,14.6648936 144.268671,14.6616489 C143.85104,14.6584043 143.397023,14.6535373 142.906388,14.6468163 C142.415753,14.6405588 141.904259,14.6354601 141.371907,14.6324472 C140.839555,14.6289708 140.319255,14.6257262 139.81147,14.6224815 C139.303221,14.6192369 138.81977,14.621091 138.360422,14.6273485 C137.901075,14.6338378 137.501058,14.6435717 137.160139,14.656782 L137.160139,17.5625845 C137.160139,18.1171854 137.168714,18.6015631 137.186328,19.0157176 C137.203478,19.4298721 137.224568,19.7870137 137.248903,20.0869107 C137.273238,20.3870395 137.304294,20.638267 137.342766,20.8403614 C137.380774,21.0426876 137.4211,21.2121039 137.462817,21.3490738 L137.462817,21.3882412 L134.957495,21.3882412 L134.957495,21.3490738 C134.999444,21.2121039 135.039306,21.0426876 135.077779,20.8403614 C135.115787,20.638267 135.148929,20.3870395 135.176972,20.0869107 C135.204551,19.7870137 135.225409,19.4298721 135.239315,19.0157176 C135.253452,18.6015631 135.260405,18.1171854 135.260405,17.5625845 L135.260405,11.1931339 C135.260405,10.6387648 135.253452,10.1543871 135.239315,9.74000086 C135.225409,9.32607811 135.204551,8.9670824 135.176972,8.66394077 C135.148929,8.36056738 135.115787,8.1077176 135.077779,7.90562318 C135.039306,7.70352876 134.999444,7.53388069 134.957495,7.39691073 L134.957495,7.35774335 L137.462817,7.35774335 L137.462817,7.39691073 C137.4211,7.53388069 137.380774,7.70352876 137.342766,7.90562318 C137.304294,8.1077176 137.273238,8.36056738 137.248903,8.66394077 C137.224568,8.9670824 137.203478,9.32607811 137.186328,9.74000086 C137.168714,10.1543871 137.160139,10.6387648 137.160139,11.1931339 L137.160139,13.6977605 C137.521916,13.7109708 137.932594,13.7190824 138.391942,13.722327 C138.851058,13.7255717 139.331264,13.7255717 139.832328,13.722327 C140.333392,13.7190824 140.843032,13.7142155 141.361478,13.7074944 C141.879693,13.7012369 142.380989,13.6928936 142.864439,13.6831597 C143.348122,13.6734258 143.800517,13.6620695 144.221624,13.6488592 C144.6425,13.6361124 145.00613,13.6229021 145.312517,13.6096918 L145.312517,11.1931339 C145.312517,10.6387648 145.30371,10.1543871 145.286328,9.74000086 C145.268946,9.32607811 145.248088,8.9670824 145.223753,8.66394077 C145.199418,8.36056738 145.167899,8.1077176 145.12989,7.90562318 C145.091418,7.70352876 145.051555,7.53388069 145.009607,7.39691073 L145.009607,7.35774335 L147.514929,7.35774335 L147.514929,7.39691073 C147.473212,7.53388069 147.432886,7.70352876 147.394877,7.90562318 C147.356405,8.1077176 147.323495,8.36056738 147.295916,8.66394077 C147.267873,8.9670824 147.247015,9.32607811 147.233109,9.74000086 C147.219203,10.1543871 147.212251,10.6387648 147.212251,11.1931339 L147.212251,17.5625845 C147.212251,18.1171854 147.219203,18.6015631 147.233109,19.0157176 C147.247015,19.4298721 147.267873,19.7870137 147.295916,20.0869107 C147.323495,20.3870395 147.356405,20.638267 147.394877,20.8403614 C147.432886,21.0426876 147.473212,21.2121039 147.514929,21.3490738 L147.514929,21.3882412 L145.009607,21.3882412 L145.009607,21.3490738 C145.051555,21.2121039 145.091418,21.0426876 145.12989,20.8403614 C145.167899,20.638267 145.199418,20.3870395 145.223753,20.0869107 C145.248088,19.7870137 145.268946,19.4298721 145.286328,19.0157176 C145.30371,18.6015631 145.312517,18.1171854 145.312517,17.5625845 L145.312517,14.6762498 Z M154.435573,8.21868412 C153.614217,8.21868412 152.873282,8.25275279 152.212071,8.32135365 C151.551093,8.38995451 150.9805,8.46342232 150.500294,8.54175708 C149.943376,8.6393279 149.44602,8.74686438 149.00753,8.86436652 L149.310209,7.27936223 C149.393642,7.28608326 149.519024,7.29257253 149.686123,7.29883004 C149.853221,7.30555107 150.039093,7.31204034 150.244432,7.31852961 C150.449771,7.32525064 150.665307,7.32988584 150.891736,7.33336223 C151.117934,7.33660687 151.331616,7.3398515 151.533711,7.34309614 C151.735573,7.34634077 151.914724,7.34958541 152.071161,7.35283004 C152.227831,7.35607468 152.34093,7.357697 152.410458,7.357697 L158.370621,7.357697 C158.440148,7.357697 158.553479,7.35607468 158.709917,7.35283004 C158.866586,7.34958541 159.045736,7.34634077 159.247599,7.34309614 C159.449462,7.3398515 159.663376,7.33660687 159.889573,7.33336223 C160.115539,7.32988584 160.331307,7.32525064 160.536646,7.31852961 C160.741985,7.31204034 160.92832,7.30555107 161.094955,7.29883004 C161.262054,7.29257253 161.387436,7.28608326 161.47087,7.27936223 L161.773548,8.86436652 C161.328106,8.74686438 160.827041,8.6393279 160.270586,8.54175708 C159.790148,8.46342232 159.219788,8.38995451 158.558578,8.32135365 C157.897599,8.25275279 157.1562,8.21868412 156.335307,8.21868412 L156.335307,17.5625382 C156.335307,18.1171391 156.343882,18.6015167 156.361496,19.0156712 C156.378646,19.4298258 156.399505,19.7869674 156.424071,20.0868644 C156.448406,20.3869931 156.479462,20.6382206 156.517934,20.840315 C156.555942,21.0426412 156.596269,21.2120575 156.637985,21.3490275 L156.637985,21.3881948 L154.143093,21.3881948 L154.143093,21.3490275 C154.185041,21.2120575 154.22305,21.0426412 154.258045,20.840315 C154.292809,20.6382206 154.324097,20.3869931 154.35214,20.0868644 C154.379719,19.7869674 154.400578,19.4298258 154.414483,19.0156712 C154.428621,18.6015167 154.435573,18.1171391 154.435573,17.5625382 L154.435573,8.21868412 Z M26.6172953,8.34202661 C27.0191665,8.76684206 27.5746944,9.48622403 27.5746944,9.48622403 C28.3522481,8.77935708 28.5344112,8.34202661 28.5344112,8.34202661 C28.8289777,10.4440867 29.5483597,13.8637004 29.7047974,15.9333142 C29.8542824,17.9079064 27.5967116,20.0523785 27.5320506,19.9819236 C26.280085,18.6198721 25.3583768,17.3373142 25.6181794,15.2962069 C25.8965227,13.1109451 26.3452094,10.2850996 26.6172953,8.34202661 Z M27.5625502,8.59777339 C26.8563785,7.99496652 26.3286618,7.54465751 25.6150738,6.93559313 L29.5345931,6.93559313 C28.788327,7.56458884 28.1894601,8.06936137 27.5625502,8.59777339 Z M60,38.5604206 L60,32 L60.8802232,32 L60.8802232,37.8447468 L63.3948155,37.8447468 L63.3948155,38.5604206 L60,38.5604206 Z M72.2894524,32.04123 L72.2894524,32.7571356 L69.3616326,32.7571356 L69.3616326,34.9634876 L72.2894524,34.9634876 L72.2894524,35.6791614 L69.3616326,35.6791614 L69.3616326,37.8859768 L72.2894524,37.8859768 L72.2894524,38.6016506 L68.4811777,38.6016506 L68.4811777,32.04123 L72.2894524,32.04123 Z M83.4111811,37.7080086 C82.6945803,38.3523004 81.8614043,38.6744464 80.9111897,38.6744464 C79.8930695,38.6744464 79.0330094,38.3455794 78.3310094,37.687382 C77.6290094,37.0294163 77.2781253,36.2400429 77.2781253,35.31903 C77.2781253,34.4075193 77.6290094,33.6202318 78.3310094,32.9576309 C79.0330094,32.2952618 79.8930695,31.9638455 80.9111897,31.9638455 C81.8581597,31.9638455 82.7254043,32.3010558 83.5133871,32.9759399 L82.9006146,33.4865064 C82.2584086,32.954618 81.5953442,32.6887897 80.9111897,32.6887897 C80.1653871,32.6887897 79.5208635,32.94303 78.9780824,33.4524378 C78.4348378,33.961382 78.1632155,34.5836567 78.1632155,35.31903 C78.1632155,36.0608927 78.4348378,36.6852532 78.9780824,37.1928069 C79.5208635,37.7005923 80.1653871,37.9541373 80.9111897,37.9541373 C81.5499193,37.9541373 82.0915416,37.7870386 82.5358249,37.4526094 L82.5358249,35.4557682 L83.4111811,35.4557682 L83.4111811,37.7080086 Z M91.5757494,35.1640987 L90.9045734,33.4226567 L90.2285305,35.1640987 L91.5757494,35.1640987 Z M91.2888309,32.0411373 L93.8226592,38.6015579 L92.9083674,38.6015579 L91.8529339,35.8753691 L89.9511142,35.8753691 L88.8764446,38.6015579 L87.9572858,38.6015579 L90.5251828,32.0411373 L91.2888309,32.0411373 Z M98.4660567,38.6015579 L98.4660567,32.0411373 L99.3462798,32.0411373 L99.3462798,37.8858841 L101.86064,37.8858841 L101.86064,38.6015579 L98.4660567,38.6015579 Z"/>
  </g>
</svg>
