<svg xmlns="http://www.w3.org/2000/svg" width="162" height="39" viewBox="0 0 162 39">
  <g fill="none" fill-rule="evenodd">
    <path fill="#141C26" d="M7.81658112,13.2408464 C8.41266695,13.2408464 9.02404893,13.2385288 9.65142232,13.2336618 C10.2781004,13.2287948 10.8922635,13.2241597 11.4936798,13.2190609 C12.0948644,13.2144258 12.6731047,13.2095588 13.2281691,13.2049236 C13.7830017,13.2000567 14.2866155,13.1928721 14.7390103,13.1831382 L10.406727,4.00638283 L6.15138798,13.2408464 L7.81658112,13.2408464 Z M17.8070446,21.3190609 L17.8070446,21.2613528 C17.8274395,21.2131468 17.8429674,21.1410695 17.8531648,21.0446575 C17.8633622,20.9484773 17.8686927,20.8617991 17.8686927,20.7846232 C17.8686927,20.4861167 17.8248901,20.1558592 17.7377485,19.7945459 C17.6501433,19.4332326 17.4832764,18.9829236 17.2366841,18.4433871 L15.3710189,14.5125116 C14.7953279,14.4932755 14.0298258,14.4835416 13.0740489,14.4835416 L9.9749588,14.4835416 L7.62375708,14.4835416 C6.86845236,14.4835416 6.18754249,14.4932755 5.58102747,14.5125116 L3.80806609,18.3277391 C3.65394592,18.6841854 3.48939657,19.0744687 3.31488155,19.4983571 C3.139903,19.9222455 3.05252961,20.3510009 3.05252961,20.7846232 C3.05252961,20.9097734 3.06272704,21.01337 3.08358541,21.0951811 C3.10398026,21.1769923 3.12437511,21.2323828 3.14523348,21.2613528 L3.14523348,21.3190609 L2.31759653e-05,21.3190609 L2.31759653e-05,21.2613528 C0.184967382,21.0782627 0.416263519,20.7533356 0.693911588,20.2858764 C0.971327897,19.8186489 1.27423777,19.2334558 1.60333648,18.5300652 L10.4375511,0.162417167 L11.670976,0.162417167 L20.0423665,17.8220395 C20.2377399,18.2364258 20.4407614,18.6385288 20.6514309,19.028812 C20.8621004,19.4188635 21.0600232,19.7681253 21.2449674,20.0763657 C21.4301433,20.3848378 21.5944609,20.6448721 21.7383837,20.8567004 C21.8820747,21.0687605 21.9798773,21.2034129 22.0313279,21.2613528 L22.0313279,21.3190609 L17.8070446,21.3190609 Z M45.3616455,9.51820687 L45.1319717,9.51820687 C45.0763494,9.36849013 44.9875854,9.19884206 44.8656798,9.00949442 C44.744006,8.82037854 44.5840918,8.64261888 44.3857056,8.47621545 C44.1873193,8.30981202 43.9472163,8.17121974 43.6653966,8.06020687 C43.3833451,7.94942575 43.0510017,7.89403519 42.6683665,7.89403519 C42.3272163,7.89403519 42.0245382,7.94293648 41.7601004,8.04073906 C41.4956627,8.13854163 41.2747957,8.27574335 41.0972678,8.45164893 C40.9197399,8.62778627 40.7857828,8.83683348 40.6953966,9.07809528 C40.6047785,9.31958884 40.5595854,9.58680773 40.5595854,9.88021545 C40.5595854,10.3499923 40.7004953,10.7984472 40.982315,11.225812 C41.2643665,11.6531768 41.6173365,12.0754429 42.0419202,12.4930738 C42.4665039,12.910473 42.9258515,13.3278721 43.4199631,13.745503 C43.9140747,14.1629021 44.3734223,14.5967562 44.798006,15.0468335 C45.2223579,15.4969107 45.5755597,15.9683099 45.8576112,16.4607991 C46.1394309,16.9535202 46.2803408,17.4833227 46.2803408,18.0509021 C46.2803408,18.4750223 46.202006,18.900533 46.0455682,19.3278979 C45.8888987,19.7552627 45.6469416,20.1385931 45.3199288,20.4776575 C44.9926841,20.8169536 44.5718086,21.0925159 44.0568386,21.3043442 C43.5416369,21.5164043 42.9293279,21.6225502 42.2194481,21.6225502 C41.8226755,21.6225502 41.4451391,21.5882498 41.0868386,21.5196489 C40.7283064,21.4512798 40.3978172,21.3664558 40.0951391,21.2654086 C39.7924609,21.1643614 39.5208386,21.0549708 39.2807356,20.9374687 C39.0408644,20.8201983 38.8438687,20.71243 38.6909073,20.6146275 L38.9310103,18.4520781 L39.1919717,18.4520781 C39.2684524,18.7589279 39.3938343,19.0507133 39.5678858,19.3278979 C39.7417056,19.6050824 39.9558515,19.8498206 40.2098601,20.0616489 C40.4638687,20.273709 40.7544953,20.4435888 41.0815082,20.5705931 C41.408521,20.6978292 41.7670532,20.7615631 42.156873,20.7615631 C42.511697,20.7615631 42.8301348,20.7110395 43.1119545,20.6097605 C43.3937742,20.5087133 43.6357313,20.3684987 43.837594,20.188885 C44.0392249,20.0097348 44.1940403,19.7960524 44.3020403,19.5480695 C44.4100403,19.3003185 44.4638086,19.0293914 44.4638086,18.7357519 C44.4638086,18.3248421 44.3838515,17.944988 44.2237056,17.5959579 C44.0635597,17.2471597 43.8531219,16.9159751 43.5921605,16.6026361 C43.3311991,16.2897605 43.0352421,15.9863871 42.7049845,15.6927476 C42.3742635,15.3991082 42.0349674,15.1040781 41.6870961,14.8069622 C41.3389931,14.5103099 40.999697,14.2055459 40.6692077,13.8922069 C40.3387185,13.5790996 40.0429931,13.2449021 39.7818,12.8893828 C39.5208386,12.5338635 39.3104009,12.1521554 39.1502549,11.7442584 C38.990109,11.3368249 38.9103837,10.8881382 38.9103837,10.3988936 C38.9103837,9.88369185 39.0162979,9.41878197 39.2285897,9.00462747 C39.4408815,8.59047296 39.7227013,8.23657597 40.0742807,7.94293648 C40.4256283,7.64952876 40.8240232,7.42425837 41.2694652,7.2678206 C41.7149073,7.11115107 42.1742549,7.03281631 42.6475082,7.03281631 C42.9953794,7.03281631 43.3156712,7.05900515 43.6079202,7.11115107 C43.9001691,7.16352876 44.1627528,7.22517682 44.395903,7.29702232 C44.6290532,7.36909957 44.83277,7.4407133 45.0068215,7.51232704 C45.1806412,7.58417253 45.3234052,7.64280773 45.4346498,7.68846438 L45.3616455,9.51820687 Z M52.7839571,8.14848412 C51.9628326,8.14848412 51.2214335,8.18255279 50.5604549,8.25115365 C49.8992446,8.31952275 49.3286524,8.39299056 48.8484464,8.47132532 C48.2915279,8.5691279 47.7939399,8.67666438 47.3556824,8.79416652 L47.6583605,7.20893047 C47.741794,7.2156515 47.867176,7.22214077 48.0340429,7.22863004 C48.2011416,7.23535107 48.3872446,7.24184034 48.5925837,7.24809785 C48.7979227,7.25481888 49.013691,7.25968584 49.2398884,7.26293047 C49.4660858,7.26617511 49.68,7.26941974 49.8818627,7.27266438 C50.0837253,7.27590901 50.2628755,7.27915365 50.4195451,7.28239828 C50.5762146,7.28564292 50.6890815,7.28726524 50.7588412,7.28726524 L56.7194678,7.28726524 C56.7889957,7.28726524 56.9023262,7.28564292 57.0587639,7.28239828 C57.2154335,7.27915365 57.3945837,7.27590901 57.5964464,7.27266438 C57.798309,7.26941974 58.0122232,7.26617511 58.2384206,7.26293047 C58.464618,7.25968584 58.6803863,7.25481888 58.8857253,7.24809785 C59.0908326,7.24184034 59.2771674,7.23535107 59.4442661,7.22863004 C59.611133,7.22214077 59.736515,7.2156515 59.8199485,7.20893047 L60.1228584,8.79416652 C59.6774163,8.67666438 59.1763519,8.5691279 58.6194335,8.47132532 C58.1392275,8.39299056 57.5686352,8.31952275 56.9074249,8.25115365 C56.2462146,8.18255279 55.5050472,8.14848412 54.6839227,8.14848412 L54.6839227,17.4930335 C54.6839227,18.0478661 54.6924979,18.5322438 54.7101116,18.9463983 C54.7272618,19.3605528 54.7481202,19.7176944 54.7726867,20.0178232 C54.7970215,20.3179519 54.828309,20.5691794 54.8665494,20.7712738 C54.9047897,20.9736 54.9448841,21.1430163 54.9866009,21.2799863 L54.9866009,21.3191536 L52.4917082,21.3191536 L52.4917082,21.2799863 C52.5334249,21.1430163 52.5716652,20.9736 52.6064292,20.7712738 C52.6411931,20.5691794 52.6727124,20.3179519 52.7005236,20.0178232 C52.728103,19.7176944 52.7491931,19.3605528 52.7630987,18.9463983 C52.7770043,18.5322438 52.7839571,18.0478661 52.7839571,17.4930335 L52.7839571,8.14848412 Z M61.7095313,21.2800094 C61.7512481,21.1430395 61.7894884,20.9736232 61.8244841,20.771297 C61.8592481,20.5692026 61.8903039,20.3179751 61.9183468,20.0178464 C61.9461579,19.7177176 61.9667845,19.360576 61.9809219,18.9464215 C61.9948275,18.532267 62.0017803,18.0478893 62.0017803,17.4930567 L62.0017803,11.1231425 C62.0017803,10.5685416 61.9948275,10.0841639 61.9809219,9.67000944 C61.9667845,9.25562318 61.9461579,8.89685923 61.9183468,8.5937176 C61.8903039,8.29034421 61.8592481,8.03749442 61.8244841,7.83516824 C61.7894884,7.63307382 61.7512481,7.46342575 61.7095313,7.32645579 L61.7095313,7.28728841 L64.204424,7.28728841 L64.204424,7.32645579 C64.1627073,7.46342575 64.1226129,7.63307382 64.0843725,7.83516824 C64.0461322,8.03749442 64.0148446,8.29034421 63.9905099,8.5937176 C63.9659433,8.89685923 63.945085,9.25562318 63.9279348,9.67000944 C63.910321,10.0841639 63.9017459,10.5685416 63.9017459,11.1231425 L63.9017459,17.4930567 C63.9017459,18.0478893 63.910321,18.532267 63.9279348,18.9464215 C63.945085,19.360576 63.9659433,19.7177176 63.9905099,20.0178464 C64.0148446,20.3179751 64.0461322,20.5692026 64.0843725,20.771297 C64.1226129,20.9736232 64.1627073,21.1430395 64.204424,21.2800094 L64.204424,21.3191768 L61.7095313,21.3191768 L61.7095313,21.2800094 Z M67.8685906,7.28728841 L78.6210798,18.0117348 L78.6210798,11.1231425 C78.6210798,10.5685416 78.614127,10.0841639 78.6002215,9.67000944 C78.5860841,9.25562318 78.5652258,8.89685923 78.5376464,8.5937176 C78.5096034,8.29034421 78.4764618,8.03749442 78.4382215,7.83516824 C78.3999811,7.63307382 78.3601185,7.46342575 78.31817,7.32645579 L78.31817,7.28728841 L80.1764189,7.28728841 L80.1764189,7.32645579 C80.1347021,7.46342575 80.0964618,7.63307382 80.0616979,7.83516824 C80.0267021,8.03749442 79.9954146,8.29034421 79.9678352,8.5937176 C79.9397923,8.89685923 79.9189339,9.25562318 79.9050283,9.67000944 C79.8911227,10.0841639 79.88417,10.5685416 79.88417,11.1231425 L79.88417,21.5150137 L79.5189167,21.5150137 L68.7664275,10.8000695 L68.7664275,17.4930567 C68.7664275,18.0478893 68.7731485,18.532267 68.7872858,18.9464215 C68.8011914,19.360576 68.8220498,19.7177176 68.8498609,20.0178464 C68.8776721,20.3179751 68.9089597,20.5692026 68.9439554,20.771297 C68.9787193,20.9736232 69.0169597,21.1430395 69.0586764,21.2800094 L69.0586764,21.3191768 L67.2006592,21.3191768 L67.2006592,21.2800094 C67.242376,21.1430395 67.2822386,20.9736232 67.320479,20.771297 C67.3587193,20.5692026 67.3918609,20.3179751 67.4196721,20.0178464 C67.4474833,19.7177176 67.4683416,19.360576 67.4822472,18.9464215 C67.4963845,18.532267 67.5033373,18.0478893 67.5033373,17.4930567 L67.5033373,11.1231425 C67.5033373,10.5685416 67.4963845,10.0841639 67.4822472,9.67000944 C67.4683416,9.25562318 67.4474833,8.89685923 67.4196721,8.5937176 C67.3918609,8.29034421 67.3587193,8.03749442 67.320479,7.83516824 C67.2822386,7.63307382 67.242376,7.46342575 67.2006592,7.32645579 L67.2006592,7.28728841 L67.8685906,7.28728841 Z M34.213079,7.22913991 C35.0842635,7.39739742 35.8780403,7.55059056 36.8708987,7.74225579 C35.6085039,13.6500412 31.9624609,17.7482472 27.5701519,21.4737837 C23.2165468,17.7480155 19.5997056,13.6924532 18.3016197,7.84469356 C19.1982979,7.62776652 19.9774738,7.4388824 20.9154052,7.21175794 C21.4813622,12.4722386 23.9384781,16.6900326 27.5680661,20.4948309 C31.1920918,16.7338352 33.667285,12.5382901 34.213079,7.22913991 Z" transform="translate(0 .07)"/>
    <path fill="#20A971" d="M89.8954918,11.1426103 C89.1965047,11.1426103 88.6108481,11.1667133 88.1382901,11.2149193 C87.6652687,11.2631253 87.300479,11.3113313 87.0432258,11.3593056 L87.0432258,15.7379408 C87.0432258,16.8652197 87.0640841,17.7950395 87.1053373,18.5271682 C87.146127,19.259297 87.2026764,19.8567734 87.2745219,20.3191339 C87.6652687,20.3675717 88.0560155,20.410679 88.4465305,20.4491511 C88.8368137,20.4876232 89.1503845,20.5068592 89.3867794,20.5068592 C91.3087622,20.5068592 92.7141528,20.1047562 93.6036464,19.3003185 C94.4922129,18.4961124 94.9371914,17.26037 94.9371914,15.5935545 C94.9371914,14.93837 94.8317408,14.3388077 94.621303,13.7941725 C94.41017,13.2502326 94.0970627,12.7804558 93.6805906,12.3853056 C93.2641185,11.9903871 92.7398781,11.6844644 92.1081013,11.4675373 C91.4760927,11.2508421 90.7384017,11.1426103 89.8954918,11.1426103 Z M87.0432258,10.0586704 C87.331303,10.0874086 87.5883245,10.1045588 87.8142901,10.109194 C88.0404876,10.1142927 88.2817494,10.1163785 88.5387708,10.1163785 C89.2377579,10.1163785 89.875097,10.0225159 90.450788,9.8345588 C91.0262472,9.64683348 91.5168824,9.36501373 91.9229253,8.98933133 C92.3289682,8.61364893 92.6448567,8.1438721 92.8712858,7.58023262 C93.0970197,7.01659313 93.2103502,6.35909099 93.2103502,5.60772618 C93.2103502,4.98151159 93.1278438,4.41323691 92.9635262,3.90243863 C92.7992086,3.39210386 92.5553974,2.95593219 92.2311657,2.59461888 C91.9076292,2.23330558 91.5092343,1.95635279 91.0366764,1.76352876 C90.5636549,1.57093648 90.0241185,1.47452446 89.4178352,1.47452446 C89.0268567,1.47452446 88.6854747,1.48912532 88.3927622,1.51809528 C88.0993545,1.54706524 87.8504446,1.58067039 87.6448738,1.61914249 C87.4082472,1.65761459 87.2075433,1.7058206 87.0432258,1.76352876 L87.0432258,10.0586704 Z M84.2377751,6.33012103 C84.2377751,5.51154592 84.2273459,4.79610386 84.2064876,4.18425837 C84.1860927,3.57264464 84.1552687,3.0426103 84.1142472,2.59461888 C84.072994,2.14662747 84.0240927,1.77326266 83.9675433,1.47452446 C83.910994,1.17601803 83.852127,0.925485837 83.790479,0.723159657 L83.790479,0.665451502 C83.9960498,0.675185408 84.2120498,0.679820601 84.4377837,0.679820601 C84.6329253,0.689322747 84.8514747,0.6941897 85.0932,0.6941897 L85.8410884,0.6941897 C86.2109768,0.6941897 86.7120412,0.660584549 87.3442815,0.59291073 C87.9762901,0.525700429 88.7904618,0.491863519 89.7877236,0.491863519 C90.7129082,0.491863519 91.5657837,0.605193991 92.3470455,0.831623176 C93.1278438,1.05805236 93.8041185,1.38321116 94.374479,1.80709957 C94.9448395,2.23098798 95.3921356,2.75360601 95.7156721,3.37495365 C96.0394403,3.99630129 96.2014403,4.7022412 96.2014403,5.49207811 C96.2014403,6.15676481 96.1036378,6.75192361 95.9084961,7.27662747 C95.7131227,7.80202661 95.4382558,8.25952017 95.0834318,8.64957167 C94.7288395,9.03985494 94.3026335,9.36756309 93.8041185,9.63223262 C93.3053717,9.89736567 92.7581871,10.1068764 92.1618695,10.2609966 C93.0356034,10.3861468 93.8321614,10.5958893 94.5515433,10.8895288 C95.2706936,11.1836318 95.8904189,11.5521296 96.4095605,11.9952541 C96.9284704,12.4383785 97.3289511,12.9561296 97.6119296,13.5487391 C97.8944446,14.1411167 98.0360498,14.7986189 98.0360498,15.5212455 C98.0360498,17.5542412 97.321303,19.0787562 95.8932,20.0950223 C94.46417,21.1117519 92.3261871,21.6197691 89.4794833,21.6197691 C89.1712429,21.6197691 88.8113202,21.6074858 88.4004103,21.5836146 C87.9888052,21.5592798 87.5702472,21.533091 87.1438094,21.504121 C86.7169082,21.4751511 86.2983502,21.4484987 85.8872086,21.4246275 C85.4758352,21.4005245 85.116376,21.388473 84.8081356,21.388473 L83.790479,21.388473 L83.790479,21.3307648 C83.852127,21.1284386 83.910994,20.8779064 83.9675433,20.5791682 C84.0240927,20.2806618 84.072994,19.9096146 84.1142472,19.4664901 C84.1552687,19.0233657 84.1860927,18.4961124 84.2064876,17.8840352 C84.2273459,17.2721897 84.2377751,16.5569794 84.2377751,15.7379408 L84.2377751,6.33012103 Z M102.995567,14.59817 C103.183524,14.6373373 103.374726,14.6651485 103.569636,14.6811399 C103.764314,14.6978266 103.952271,14.7057064 104.133276,14.7057064 C104.655198,14.7057064 105.131696,14.6322386 105.563233,14.4857665 C105.994537,14.3388309 106.361645,14.1154146 106.664555,13.8152858 C106.967233,13.5153888 107.202005,13.142024 107.369104,12.6949597 C107.536203,12.2483588 107.619636,11.7250455 107.619636,11.124788 C107.619636,10.6353116 107.560306,10.1919554 107.44234,9.79402403 C107.323911,9.39632446 107.148237,9.0588824 106.915087,8.78123433 C106.681705,8.50428155 106.388065,8.28897682 106.033009,8.13555193 C105.678185,7.9823588 105.264031,7.90564635 104.790778,7.90564635 C104.310803,7.90564635 103.927705,7.92859056 103.64264,7.97424721 C103.357344,8.01990386 103.141576,8.06880515 102.995567,8.12095107 L102.995567,14.59817 Z M102.995567,17.5628395 C102.995567,18.1174403 103.004142,18.6015863 103.021524,19.0159725 C103.038906,19.430127 103.059765,19.7872687 103.084331,20.0871657 C103.108434,20.3872944 103.139722,20.6385219 103.178194,20.8406163 C103.216203,21.0429425 103.256529,21.2123588 103.298245,21.3493288 L103.298245,21.3884961 L100.792924,21.3884961 L100.792924,21.3493288 C100.834872,21.2123588 100.874735,21.0429425 100.913207,20.8406163 C100.951215,20.6385219 100.982503,20.3872944 101.00707,20.0871657 C101.031173,19.7872687 101.052031,19.4315176 101.069413,19.0206077 C101.087027,18.6099296 101.095833,18.1239296 101.095833,17.5628395 L101.095833,11.1933888 C101.095833,10.638788 101.087027,10.1544103 101.069413,9.74025579 C101.052031,9.32610129 101.031173,8.96895966 101.00707,8.6688309 C100.982503,8.36893391 100.951215,8.11608412 100.913207,7.91074506 C100.874735,7.70517425 100.834872,7.53390386 100.792924,7.39693391 L100.792924,7.35776652 L101.231413,7.39693391 C101.363516,7.40991245 101.51161,7.41825579 101.675001,7.42126867 C101.838391,7.42474506 102.007112,7.42636738 102.181164,7.42636738 C102.452555,7.42636738 102.819662,7.39531159 103.282486,7.3332 C103.745078,7.27155193 104.334906,7.24026438 105.051739,7.24026438 C105.719902,7.24026438 106.33731,7.32508841 106.904658,7.49473648 C107.471542,7.66438455 107.964031,7.91213562 108.381662,8.23845322 C108.799293,8.56453906 109.124452,8.96386094 109.357602,9.4368824 C109.590752,9.90990386 109.707327,10.4464275 109.707327,11.0464532 C109.707327,11.5159983 109.642898,11.9514747 109.514271,12.3526506 C109.385413,12.7538266 109.204409,13.1174575 108.97149,13.4437751 C108.738108,13.7698609 108.458142,14.0584017 108.13113,14.3096292 C107.803885,14.5606249 107.438632,14.7710627 107.035138,14.9407107 L110.699027,19.7643245 C110.880031,20.0055863 111.048752,20.21417 111.20519,20.3903073 C111.361859,20.5666764 111.511344,20.7182472 111.654108,20.8454833 C111.79664,20.9727193 111.934074,21.0770112 112.066409,21.1585906 C112.198512,21.24017 112.334323,21.3039039 112.47361,21.3493288 L112.47361,21.3884961 L109.456795,21.3884961 C109.435936,21.2647365 109.368031,21.0999554 109.25331,20.8943845 C109.138357,20.6888137 109.0044,20.485097 108.851439,20.2827708 L105.156263,15.4005219 C104.996117,15.4137322 104.835971,15.4248567 104.676057,15.4345906 C104.515911,15.4443245 104.352288,15.4494232 104.185421,15.4494232 C103.990512,15.4494232 103.793979,15.4429339 103.595825,15.4297236 C103.397207,15.4167451 103.197198,15.3940326 102.995567,15.3613545 L102.995567,17.5628395 Z M113.517085,21.3493056 C113.559033,21.2123356 113.597042,21.0429193 113.632038,20.8405931 C113.666802,20.6384987 113.697858,20.3872712 113.7259,20.0871425 C113.753712,19.7872455 113.774338,19.4301039 113.788476,19.0159494 C113.802381,18.6017948 113.809566,18.1174172 113.809566,17.5628163 L113.809566,11.1933657 C113.809566,10.6387648 113.802381,10.1543871 113.788476,9.74023262 C113.774338,9.32607811 113.753712,8.96731416 113.7259,8.66417253 C113.697858,8.36056738 113.666802,8.10794936 113.632038,7.90562318 C113.597042,7.70352876 113.559033,7.53388069 113.517085,7.39691073 L113.517085,7.35774335 L116.011978,7.35774335 L116.011978,7.39691073 C115.970261,7.53388069 115.929935,7.70352876 115.891926,7.90562318 C115.853454,8.10794936 115.822167,8.36056738 115.798064,8.66417253 C115.773497,8.96731416 115.752639,9.32607811 115.735257,9.74023262 C115.717875,10.1543871 115.7093,10.6387648 115.7093,11.1933657 L115.7093,17.5628163 C115.7093,18.1174172 115.717875,18.6017948 115.735257,19.0159494 C115.752639,19.4301039 115.773497,19.7872455 115.798064,20.0871425 C115.822167,20.3872712 115.853454,20.6384987 115.891926,20.8405931 C115.929935,21.0429193 115.970261,21.2123356 116.011978,21.3493056 L116.011978,21.388473 L113.517085,21.388473 L113.517085,21.3493056 Z M132.264494,19.7446481 C132.264494,19.8167253 132.255688,19.8915837 132.238537,19.9699185 C132.221155,20.0480215 132.181061,20.1133777 132.118486,20.1652918 C131.805379,20.3870858 131.466082,20.5910343 131.100829,20.7769056 C130.735344,20.9627768 130.340194,21.1243133 129.915842,21.2612833 C129.491258,21.3982532 129.033997,21.5041674 128.54313,21.5792575 C128.052726,21.6541159 127.525705,21.6916609 126.961833,21.6916609 C125.695267,21.6916609 124.540177,21.5171459 123.496331,21.1683476 C122.452486,20.8195494 121.556503,20.3254378 120.808383,19.6860129 C120.060263,19.0468197 119.481095,18.2787682 119.070417,17.3818584 C118.659739,16.4851803 118.454632,15.4886137 118.454632,14.3926223 C118.454632,13.772897 118.539688,13.1633691 118.710494,12.5631116 C118.880838,11.9630858 119.129516,11.3922618 119.456529,10.8508712 C119.783542,10.3094807 120.187499,9.81212446 120.667473,9.35880258 C121.147679,8.90524893 121.695559,8.51218455 122.311576,8.1798412 C122.927361,7.84703433 123.605954,7.58769528 124.347121,7.40182403 C125.088057,7.21572103 125.890177,7.12301717 126.75325,7.12301717 C127.086984,7.12301717 127.428134,7.13784979 127.776005,7.16681974 C128.124108,7.19625322 128.468271,7.238897 128.809421,7.29405579 C129.150108,7.34967811 129.478975,7.41665665 129.796022,7.49475966 C130.112374,7.57286266 130.41343,7.66093133 130.698726,7.75896567 L131.408606,9.56900858 L131.324941,9.60817597 C131.05355,9.3798927 130.740675,9.16783262 130.385851,8.97222747 C130.030563,8.77662232 129.651404,8.60697425 129.247679,8.46328326 C128.844185,8.32005579 128.421456,8.20765236 127.979722,8.1258412 C127.537524,8.04449356 127.090692,8.0034721 126.638297,8.0034721 C125.761318,8.0034721 124.957808,8.13233047 124.226838,8.39004721 C123.496331,8.64776395 122.868263,9.020897 122.342864,9.51037339 C121.817464,9.99938627 121.40864,10.5996438 121.116391,11.3104506 C120.824142,12.021721 120.678134,12.8305622 120.678134,13.737206 C120.678134,14.7351631 120.816958,15.6615064 121.095533,16.5157725 C121.373876,17.3705021 121.787799,18.1107425 122.337765,18.7369571 C122.887267,19.3631717 123.574666,19.8540386 124.399035,20.2095579 C125.223868,20.5650773 126.18567,20.7428369 127.285602,20.7428369 C127.772529,20.7428369 128.20731,20.7069142 128.590177,20.6350687 C128.972812,20.5632232 129.296348,20.4737639 129.561018,20.3659957 C129.825456,20.2584592 130.025464,20.1409571 130.161276,20.013721 C130.296855,19.886485 130.364761,19.7708369 130.364761,19.6663133 L130.364761,19.2848369 C130.364761,18.8282704 130.357576,18.4335837 130.343902,18.1010086 C130.329765,17.7684335 130.308906,17.4796609 130.281095,17.2351545 C130.253284,16.9904163 130.221997,16.7799785 130.187233,16.6038412 C130.152469,16.4277039 130.110752,16.2647768 130.062082,16.1148283 L130.062082,16.0756609 L132.567404,16.0756609 L132.567404,16.1148283 C132.525456,16.2517983 132.485361,16.413103 132.447121,16.599206 C132.408881,16.7848455 132.375739,17.0052489 132.347928,17.2594893 C132.320117,17.5139614 132.299258,17.8122361 132.285353,18.1547768 C132.271215,18.4970858 132.264494,18.8933948 132.264494,19.3437039 L132.264494,19.7446481 Z M145.312517,14.6764815 C145.034173,14.6699923 144.68607,14.6651253 144.268671,14.6618807 C143.85104,14.6586361 143.397023,14.6535373 142.906388,14.6470481 C142.415753,14.6407906 141.904259,14.6356918 141.371907,14.6324472 C140.839555,14.6292026 140.319255,14.6259579 139.81147,14.6227133 C139.303221,14.6194687 138.81977,14.621091 138.360422,14.6273485 C137.901075,14.6340695 137.501058,14.6438034 137.160139,14.656782 L137.160139,17.5628163 C137.160139,18.1174172 137.168714,18.6017948 137.186328,19.0159494 C137.203478,19.4301039 137.224568,19.7872455 137.248903,20.0871425 C137.273238,20.3872712 137.304294,20.6384987 137.342766,20.8405931 C137.380774,21.0429193 137.4211,21.2123356 137.462817,21.3493056 L137.462817,21.388473 L134.957495,21.388473 L134.957495,21.3493056 C134.999444,21.2123356 135.039306,21.0429193 135.077779,20.8405931 C135.115787,20.6384987 135.148929,20.3872712 135.176972,20.0871425 C135.204551,19.7872455 135.225409,19.4301039 135.239315,19.0159494 C135.253452,18.6017948 135.260405,18.1174172 135.260405,17.5628163 L135.260405,11.1933657 C135.260405,10.6387648 135.253452,10.1543871 135.239315,9.74023262 C135.225409,9.32607811 135.204551,8.96731416 135.176972,8.66417253 C135.148929,8.36056738 135.115787,8.10794936 135.077779,7.90562318 C135.039306,7.70352876 134.999444,7.53388069 134.957495,7.39691073 L134.957495,7.35774335 L137.462817,7.35774335 L137.462817,7.39691073 C137.4211,7.53388069 137.380774,7.70352876 137.342766,7.90562318 C137.304294,8.10794936 137.273238,8.36056738 137.248903,8.66417253 C137.224568,8.96731416 137.203478,9.32607811 137.186328,9.74023262 C137.168714,10.1543871 137.160139,10.6387648 137.160139,11.1933657 L137.160139,13.6979923 C137.521916,13.7112026 137.932594,13.7190824 138.391942,13.7225588 C138.851058,13.7258034 139.331264,13.7258034 139.832328,13.7225588 C140.333392,13.7190824 140.843032,13.7144472 141.361478,13.7077262 C141.879693,13.7012369 142.380989,13.6931253 142.864439,13.6833914 C143.348122,13.6736575 143.800517,13.6623013 144.221624,13.6488592 C144.6425,13.6361124 145.00613,13.6231339 145.312517,13.6099236 L145.312517,11.1933657 C145.312517,10.6387648 145.30371,10.1543871 145.286328,9.74023262 C145.268946,9.32607811 145.248088,8.96731416 145.223753,8.66417253 C145.199418,8.36056738 145.167899,8.10794936 145.12989,7.90562318 C145.091418,7.70352876 145.051555,7.53388069 145.009607,7.39691073 L145.009607,7.35774335 L147.514929,7.35774335 L147.514929,7.39691073 C147.473212,7.53388069 147.432886,7.70352876 147.394877,7.90562318 C147.356405,8.10794936 147.323495,8.36056738 147.295916,8.66417253 C147.267873,8.96731416 147.247015,9.32607811 147.233109,9.74023262 C147.219203,10.1543871 147.212251,10.6387648 147.212251,11.1933657 L147.212251,17.5628163 C147.212251,18.1174172 147.219203,18.6017948 147.233109,19.0159494 C147.247015,19.4301039 147.267873,19.7872455 147.295916,20.0871425 C147.323495,20.3872712 147.356405,20.6384987 147.394877,20.8405931 C147.432886,21.0429193 147.473212,21.2123356 147.514929,21.3493056 L147.514929,21.388473 L145.009607,21.388473 L145.009607,21.3493056 C145.051555,21.2123356 145.091418,21.0429193 145.12989,20.8405931 C145.167899,20.6384987 145.199418,20.3872712 145.223753,20.0871425 C145.248088,19.7872455 145.268946,19.4301039 145.286328,19.0159494 C145.30371,18.6017948 145.312517,18.1174172 145.312517,17.5628163 L145.312517,14.6764815 Z M154.435573,8.2188927 C153.614217,8.2188927 152.873282,8.25296137 152.212071,8.32133047 C151.551093,8.38993133 150.9805,8.46339914 150.500294,8.54173391 C149.943376,8.63930472 149.44602,8.74707296 149.00753,8.86457511 L149.310209,7.27933906 C149.393642,7.28606009 149.519024,7.29278112 149.686123,7.29903863 C149.853221,7.30575966 150.039093,7.31224893 150.244432,7.31850644 C150.449771,7.32522747 150.665307,7.33009442 150.891736,7.33333906 C151.117934,7.33658369 151.331616,7.33982833 151.533711,7.34307296 C151.735573,7.3463176 151.914724,7.34956223 152.071161,7.35303863 C152.227831,7.35628326 152.34093,7.35767382 152.410458,7.35767382 L158.370621,7.35767382 C158.440148,7.35767382 158.553479,7.35628326 158.709917,7.35303863 C158.866586,7.34956223 159.045736,7.3463176 159.247599,7.34307296 C159.449462,7.33982833 159.663376,7.33658369 159.889573,7.33333906 C160.115539,7.33009442 160.331307,7.32522747 160.536646,7.31850644 C160.741985,7.31224893 160.92832,7.30575966 161.094955,7.29903863 C161.262054,7.29278112 161.387436,7.28606009 161.47087,7.27933906 L161.773548,8.86457511 C161.328106,8.74707296 160.827041,8.63930472 160.270586,8.54173391 C159.790148,8.46339914 159.219788,8.38993133 158.558578,8.32133047 C157.897599,8.25296137 157.1562,8.2188927 156.335307,8.2188927 L156.335307,17.5627468 C156.335307,18.1173476 156.343882,18.6017253 156.361496,19.0158798 C156.378646,19.4300343 156.399505,19.787176 156.424071,20.087073 C156.448406,20.3872017 156.479462,20.6384292 156.517934,20.8405236 C156.555942,21.0428498 156.596269,21.2122661 156.637985,21.3492361 L156.637985,21.3884034 L154.143093,21.3884034 L154.143093,21.3492361 C154.185041,21.2122661 154.22305,21.0428498 154.258045,20.8405236 C154.292809,20.6384292 154.324097,20.3872017 154.35214,20.087073 C154.379719,19.787176 154.400578,19.4300343 154.414483,19.0158798 C154.428621,18.6017253 154.435573,18.1173476 154.435573,17.5627468 L154.435573,8.2188927 Z M34.5942077,32.7571124 L34.5942077,38.6016275 L33.7188515,38.6016275 L33.7188515,32.7571124 L32.0455468,32.7571124 L32.0455468,32.0412069 L36.2624137,32.0412069 L36.2624137,32.7571124 L34.5942077,32.7571124 Z M44.8550189,32.04123 L44.8550189,32.7571356 L41.9271991,32.7571356 L41.9271991,34.9634876 L44.8550189,34.9634876 L44.8550189,35.6791614 L41.9271991,35.6791614 L41.9271991,37.8859768 L44.8550189,37.8859768 L44.8550189,38.6016506 L41.0467442,38.6016506 L41.0467442,32.04123 L44.8550189,32.04123 Z M55.4659262,37.156467 L56.0786987,37.6670335 C55.2909476,38.3389047 54.4234712,38.6744927 53.476733,38.6744927 C52.4583811,38.6744927 51.5985528,38.3456258 50.8965528,37.6874283 C50.1945528,37.0294627 49.8434369,36.2400893 49.8434369,35.3190764 C49.8434369,34.4075657 50.1945528,33.6202781 50.8965528,32.9576773 C51.5985528,32.2950764 52.4583811,31.9638918 53.476733,31.9638918 C54.4234712,31.9638918 55.2909476,32.3011021 56.0786987,32.9759863 L55.4659262,33.4865528 C54.8239519,32.9546644 54.1608876,32.6888361 53.476733,32.6888361 C52.7309305,32.6888361 52.0864069,32.9430764 51.543394,33.4524841 C51.0001494,33.9614283 50.7287588,34.5834712 50.7287588,35.3190764 C50.7287588,36.0607073 51.0001494,36.6852996 51.543394,37.1928532 C52.0864069,37.7006386 52.7309305,37.9541837 53.476733,37.9541837 C54.1608876,37.9541837 54.8239519,37.6883554 55.4659262,37.156467 Z M61.8066155,35.6792309 L61.8066155,38.6014884 L60.9263923,38.6014884 L60.9263923,32.0412996 L61.8066155,32.0412996 L61.8066155,34.9635571 L64.6811305,34.9635571 L64.6811305,32.0412996 L65.5613536,32.0412996 L65.5613536,38.6014884 L64.6811305,38.6014884 L64.6811305,35.6792309 L61.8066155,35.6792309 Z M71.5033004,32.04123 L75.4914206,37.284097 L75.4914206,32.04123 L76.3718755,32.04123 L76.3718755,38.6016506 L75.3991803,38.6016506 L71.5130343,33.4911185 L71.5130343,38.6016506 L70.6328112,38.6016506 L70.6328112,32.04123 L71.5033004,32.04123 Z M84.9253133,32.6704112 C84.1795107,32.6704112 83.5342918,32.9265056 82.9896567,33.4384627 C82.4450215,33.9506515 82.1727039,34.5745485 82.1727039,35.3101536 C82.1727039,36.0515528 82.4450215,36.6777674 82.9896567,37.1883339 C83.5342918,37.6989004 84.1795107,37.9542996 84.9253133,37.9542996 C85.6743605,37.9542996 86.3212017,37.6989004 86.8660687,37.1883339 C87.4109356,36.6777674 87.6830215,36.0515528 87.6830215,35.3101536 C87.6830215,34.5745485 87.4109356,33.9506515 86.8660687,33.4384627 C86.3212017,32.9265056 85.6743605,32.6704112 84.9253133,32.6704112 Z M87.5103605,32.9441193 C88.2156052,33.6064884 88.5683433,34.3951665 88.5683433,35.3101536 C88.5683433,36.2309348 88.2156052,37.0216987 87.5103605,37.682909 C86.8051159,38.3438876 85.9436652,38.6743768 84.9253133,38.6743768 C83.9104378,38.6743768 83.0503777,38.3438876 82.345133,37.682909 C81.6398884,37.0216987 81.287382,36.2309348 81.287382,35.3101536 C81.287382,34.3951665 81.6398884,33.6064884 82.345133,32.9441193 C83.0503777,32.2812867 83.9104378,31.9501021 84.9253133,31.9501021 C85.9436652,31.9501021 86.8051159,32.2812867 87.5103605,32.9441193 Z M93.4986129,38.6015579 L93.4986129,32.0411373 L94.3788361,32.0411373 L94.3788361,37.8858841 L96.8931966,37.8858841 L96.8931966,38.6015579 L93.4986129,38.6015579 Z M104.814556,32.6704112 C104.068754,32.6704112 103.423535,32.9265056 102.8789,33.4384627 C102.334264,33.9506515 102.061715,34.5745485 102.061715,35.3101536 C102.061715,36.0515528 102.334264,36.6777674 102.8789,37.1883339 C103.423535,37.6989004 104.068754,37.9542996 104.814556,37.9542996 C105.563603,37.9542996 106.210445,37.6989004 106.755312,37.1883339 C107.300179,36.6777674 107.572264,36.0515528 107.572264,35.3101536 C107.572264,34.5745485 107.300179,33.9506515 106.755312,33.4384627 C106.210445,32.9265056 105.563603,32.6704112 104.814556,32.6704112 Z M107.399603,32.9441193 C108.104848,33.6064884 108.457586,34.3951665 108.457586,35.3101536 C108.457586,36.2309348 108.104848,37.0216987 107.399603,37.682909 C106.694359,38.3438876 105.832908,38.6743768 104.814556,38.6743768 C103.799681,38.6743768 102.939621,38.3438876 102.234376,37.682909 C101.529131,37.0216987 101.176625,36.2309348 101.176625,35.3101536 C101.176625,34.3951665 101.529131,33.6064884 102.234376,32.9441193 C102.939621,32.2812867 103.799681,31.9501021 104.814556,31.9501021 C105.832908,31.9501021 106.694359,32.2812867 107.399603,32.9441193 Z M119.335991,37.7080318 C118.61939,38.3523236 117.785982,38.6744695 116.836231,38.6744695 C115.817879,38.6744695 114.957819,38.3456026 114.256051,37.6874052 C113.554051,37.0294395 113.202935,36.2400661 113.202935,35.3190532 C113.202935,34.4075425 113.554051,33.6202549 114.256051,32.9576541 C114.957819,32.295285 115.817879,31.9638687 116.836231,31.9638687 C117.782969,31.9638687 118.650214,32.301079 119.438197,32.9759631 L118.825424,33.4865296 C118.183218,32.9546412 117.520385,32.6888129 116.836231,32.6888129 C116.090428,32.6888129 115.445905,32.9430532 114.902892,33.4524609 C114.359647,33.9614052 114.088025,34.5836798 114.088025,35.3190532 C114.088025,36.0609159 114.359647,36.6852764 114.902892,37.19283 C115.445905,37.7006155 116.090428,37.9541605 116.836231,37.9541605 C117.474961,37.9541605 118.016351,37.7870618 118.460634,37.4526326 L118.460634,35.4557914 L119.335991,35.4557914 L119.335991,37.7080318 Z M126.445172,35.948327 L124.042751,32.0413227 L125.015446,32.0413227 L126.887833,35.077606 L128.755584,32.0413227 L129.728279,32.0413227 L127.325627,35.948327 L127.325627,38.6015116 L126.445172,38.6015116 L126.445172,35.948327 Z M26.6172953,8.34202661 C27.0191665,8.76684206 27.5746944,9.48622403 27.5746944,9.48622403 C28.3522481,8.77935708 28.5344112,8.34202661 28.5344112,8.34202661 C28.8289777,10.4440867 29.5483597,13.8637004 29.7047974,15.9333142 C29.8542824,17.9079064 27.5967116,20.0523785 27.5320506,19.9819236 C26.280085,18.6198721 25.3583768,17.3373142 25.6181794,15.2962069 C25.8965227,13.1109451 26.3452094,10.2850996 26.6172953,8.34202661 Z M27.5625502,8.59777339 C26.8563785,7.99496652 26.3286618,7.54465751 25.6150738,6.93559313 L29.5345931,6.93559313 C28.788327,7.56458884 28.1894601,8.06936137 27.5625502,8.59777339 Z"/>
  </g>
</svg>
