<svg xmlns="http://www.w3.org/2000/svg" width="33" height="44" viewBox="0 0 33 44">
  <g fill="#20A971" fill-rule="evenodd">
    <circle cx="16.5" cy="27.5" r="16.5" fill-opacity=".2"/>
    <path d="M14.87075,0 L4.243625,0 C1.89975,0 0,0 0,2.125 L0,31.875 C0,34.252875 1.901875,33.887375 4.243625,33.887375 L14.87075,33.887375 C17.214625,33.887375 19.118625,34.252875 19.118625,31.875 L19.118625,2.125 C19.118625,0 17.214625,0 14.87075,0 Z M10.88425,32.2745 L8.2705,32.2745 L8.2705,29.352625 L10.88425,29.352625 L10.88425,32.2745 Z M17.07225,27.625 L2.118625,27.625 L2.118625,2.125 L17.07225,2.125 L17.07225,27.625 Z" transform="translate(7)"/>
  </g>
</svg>
