<svg xmlns="http://www.w3.org/2000/svg" width="1920" height="154" viewBox="0 0 1920 154">
  <defs>
    <linearGradient id="waves-location-a" x1="4.415%" y1="50%" y2="50%">
      <stop offset="0%" stop-color="#00257F"/>
      <stop offset="97.665%" stop-color="#0055C1"/>
    </linearGradient>
  </defs>
  <g fill="none" fill-rule="evenodd">
    <path fill="url(#waves-location-a)" fill-opacity=".4" d="M960,0.666604254 C1035.55556,0.663577304 1102.22222,1.9984623 1160,4.67125923 C1246.66667,8.68045463 1374.33333,35.7425236 1464.33333,48.438309 C1554.33333,61.1340945 1683.33333,68.8183857 1750,68.8183857 C1794.44444,68.8183857 1851.11111,62.0250268 1920,48.438309 L1920,147.999995 L960,147.999995 L0,148 L0,48.4383142 C68.8888889,62.0250319 125.555556,68.8183908 170,68.8183908 C236.666667,68.8183908 365.666667,61.1340996 455.666667,48.4383142 C545.666667,35.7425287 673.333333,8.68045977 760,4.67126437 C817.777778,1.99846743 884.444444,0.663585876 960,0.666619698 Z" transform="matrix(-1 0 0 1 1920 0)"/>
    <path fill="#FFF" d="M0,87.0175439 C66,87.0175439 122.333333,85.7894737 169,83.3333333 C239,79.6491228 366.333333,65.5821372 456.333333,52.8548644 C546.333333,40.1275917 716,21.3716108 759.666667,17.3524721 C803.333333,13.3333333 912,5.33333333 960,5.33333333 C960,30.2222222 960,79.5555556 960,153.333333 L0,153.333333 L0,87.0175439 Z M1920,87.0175439 L1920,153.333333 L960,153.333333 C960,79.5555556 960,30.2222222 960,5.33333333 C1008,5.33333333 1116.66667,13.3333333 1160.33333,17.3524721 C1204,21.3716108 1373.66667,40.1275917 1463.66667,52.8548644 C1553.66667,65.5821372 1681,79.6491228 1751,83.3333333 C1797.66667,85.7894737 1854,87.0175439 1920,87.0175439 Z"/>
  </g>
</svg>
